<svg id="svg" version="1.1" xmlns="http://www.w3.org/2000/svg" xmlns:xlink="http://www.w3.org/1999/xlink" width="400" height="148" viewBox="0, 0, 400,148"><g id="svgg"><path id="path0" d="M153.000 4.667 C 153.000 5.556,153.037 5.667,153.333 5.667 C 153.656 5.667,153.667 5.778,153.667 8.996 L 153.667 12.325 151.042 12.371 C 148.969 12.407,148.426 12.463,148.462 12.637 C 148.488 12.759,148.437 12.814,148.349 12.760 C 148.261 12.706,148.143 12.737,148.085 12.831 C 148.027 12.924,147.490 13.000,146.891 13.000 C 145.942 13.000,145.791 13.043,145.715 13.333 C 145.650 13.580,145.488 13.667,145.090 13.667 C 144.772 13.667,144.434 13.797,144.264 13.985 C 144.105 14.160,143.793 14.349,143.571 14.405 C 143.349 14.461,143.167 14.582,143.167 14.674 C 143.167 14.766,142.979 14.913,142.750 15.000 C 142.521 15.087,142.333 15.264,142.333 15.393 C 142.333 15.522,142.183 15.667,142.000 15.715 C 141.817 15.763,141.667 15.913,141.667 16.048 C 141.667 16.184,141.517 16.334,141.333 16.382 C 141.150 16.430,141.000 16.580,141.000 16.715 C 141.000 16.850,140.850 17.000,140.667 17.048 C 140.414 17.114,140.333 17.276,140.333 17.715 C 140.333 18.154,140.253 18.316,140.000 18.382 C 139.817 18.430,139.667 18.595,139.667 18.750 C 139.667 18.904,139.517 19.221,139.333 19.455 C 139.150 19.688,139.000 20.114,139.000 20.402 C 139.000 20.720,138.869 21.038,138.667 21.211 C 138.374 21.462,138.333 21.703,138.333 23.208 C 138.333 24.739,138.298 24.942,138.000 25.128 C 137.683 25.326,137.667 25.517,137.667 28.920 C 137.667 32.297,137.686 32.520,138.000 32.789 C 138.313 33.057,138.333 33.280,138.333 36.454 L 138.333 39.833 137.656 39.833 C 136.899 39.833,136.270 40.097,136.426 40.348 C 136.489 40.451,136.364 40.472,136.097 40.405 L 135.667 40.297 135.667 60.982 C 135.667 80.613,135.682 81.667,135.960 81.667 C 136.121 81.667,136.347 81.817,136.461 82.000 C 136.639 82.285,136.850 82.333,137.918 82.333 L 139.167 82.333 139.167 88.063 C 139.167 92.953,139.203 93.823,139.417 94.000 C 139.616 94.165,139.667 94.658,139.667 96.436 C 139.667 98.483,139.694 98.681,140.000 98.872 C 140.183 98.987,140.333 99.177,140.333 99.295 C 140.333 99.414,140.633 99.786,141.000 100.123 C 141.367 100.460,141.667 100.866,141.667 101.025 C 141.667 101.184,141.803 101.412,141.969 101.532 C 142.136 101.652,142.319 101.875,142.376 102.028 C 142.440 102.202,142.629 102.290,142.878 102.262 C 143.118 102.236,143.278 102.306,143.278 102.435 C 143.278 102.554,143.204 102.606,143.113 102.550 C 143.018 102.491,143.001 102.534,143.074 102.652 C 143.144 102.764,143.305 102.816,143.434 102.767 C 143.562 102.717,143.667 102.750,143.667 102.839 C 143.667 103.178,263.826 102.964,264.073 102.625 C 264.191 102.465,264.413 102.333,264.568 102.333 C 264.722 102.333,265.033 102.149,265.258 101.924 L 265.667 101.515 265.667 90.659 C 265.667 80.118,265.657 79.800,265.349 79.719 C 265.174 79.673,264.991 79.485,264.943 79.300 C 264.866 79.006,264.750 78.973,264.011 79.037 C 263.547 79.078,263.167 79.054,263.167 78.984 C 263.167 78.914,262.998 78.824,262.792 78.784 C 262.446 78.718,262.450 78.710,262.842 78.689 C 263.075 78.677,263.372 78.760,263.500 78.875 C 263.699 79.052,263.701 79.040,263.513 78.792 C 263.202 78.381,254.515 78.342,254.107 78.750 C 253.965 78.892,253.558 79.000,253.163 79.000 C 252.609 79.000,252.451 79.067,252.382 79.333 C 252.333 79.518,252.154 79.667,251.981 79.667 C 251.752 79.667,251.667 79.787,251.667 80.111 C 251.667 80.356,251.617 80.506,251.557 80.446 C 251.142 80.031,251.000 80.807,251.000 83.483 C 251.000 86.053,250.975 86.280,250.667 86.545 C 250.483 86.702,250.333 87.018,250.333 87.249 L 250.333 87.667 208.958 87.625 C 173.636 87.589,167.583 87.549,167.583 87.350 C 167.583 87.222,167.471 87.072,167.333 87.017 C 166.830 86.816,166.333 86.250,166.333 85.878 C 166.333 85.668,166.183 85.368,166.000 85.211 C 165.738 84.987,165.667 84.720,165.667 83.963 C 165.667 83.433,165.608 83.000,165.537 83.000 C 165.466 83.000,165.435 82.712,165.469 82.360 C 165.510 81.932,165.442 81.633,165.265 81.455 C 164.863 81.053,164.862 62.948,165.264 62.546 C 165.459 62.351,165.513 62.030,165.472 61.308 C 165.442 60.771,165.473 60.333,165.542 60.333 C 165.610 60.333,165.667 59.133,165.667 57.667 C 165.667 55.222,165.694 54.972,166.000 54.667 C 166.296 54.370,166.333 54.111,166.333 52.333 C 166.333 50.648,166.374 50.333,166.589 50.333 C 166.729 50.333,166.891 50.202,166.949 50.042 C 167.006 49.881,167.191 49.616,167.360 49.452 C 167.529 49.288,167.667 48.969,167.667 48.744 C 167.667 48.444,167.757 48.333,168.000 48.333 C 168.222 48.333,168.333 48.222,168.333 48.000 C 168.333 47.807,168.444 47.667,168.596 47.667 C 168.741 47.667,169.148 47.367,169.500 47.000 C 169.852 46.633,170.258 46.333,170.402 46.333 C 170.546 46.333,170.758 46.183,170.872 46.000 C 170.987 45.817,171.201 45.667,171.348 45.667 C 171.495 45.667,171.751 45.517,171.917 45.333 C 172.083 45.150,172.319 45.000,172.441 45.000 C 172.564 45.000,172.758 44.850,172.872 44.667 C 172.998 44.465,173.261 44.333,173.539 44.333 C 173.817 44.333,174.079 44.202,174.205 44.000 C 174.320 43.817,174.583 43.667,174.790 43.667 C 174.997 43.667,175.167 43.592,175.167 43.500 C 175.167 43.408,175.260 43.352,175.375 43.375 C 175.490 43.398,175.565 43.302,175.543 43.162 C 175.511 42.961,175.643 42.922,176.179 42.973 C 176.755 43.028,176.868 42.985,176.947 42.685 C 177.024 42.392,177.167 42.333,177.811 42.331 C 178.661 42.328,179.105 42.138,178.928 41.852 C 178.852 41.728,179.029 41.667,179.464 41.667 C 179.903 41.667,180.213 41.558,180.417 41.333 C 180.659 41.066,180.930 41.000,181.791 41.000 C 182.724 41.000,182.876 40.956,182.952 40.667 C 183.030 40.368,183.179 40.333,184.404 40.333 C 185.398 40.333,185.858 40.262,186.093 40.071 C 186.271 39.927,186.335 39.848,186.236 39.897 C 186.137 39.946,186.056 39.892,186.056 39.778 C 186.056 39.628,186.347 39.590,187.121 39.639 C 188.096 39.701,188.195 39.677,188.280 39.353 C 188.368 39.016,188.472 39.000,190.518 39.000 C 192.483 39.000,192.681 38.972,192.872 38.667 C 193.066 38.356,193.261 38.333,195.707 38.333 C 197.151 38.333,198.333 38.269,198.333 38.190 C 198.333 38.111,198.507 38.079,198.718 38.120 C 198.943 38.163,199.195 38.084,199.322 37.930 C 199.502 37.714,199.947 37.666,201.812 37.664 C 204.283 37.662,204.833 37.583,204.833 37.231 C 204.833 36.802,214.174 36.900,214.545 37.333 C 214.809 37.642,215.036 37.667,217.647 37.667 C 220.084 37.667,220.478 37.703,220.567 37.935 C 220.640 38.125,220.816 38.183,221.169 38.131 C 221.443 38.091,221.667 38.120,221.667 38.196 C 221.667 38.271,222.746 38.333,224.066 38.333 C 226.044 38.333,226.481 38.377,226.560 38.583 C 226.613 38.721,226.743 38.833,226.849 38.833 C 226.970 38.833,226.987 38.753,226.895 38.617 C 226.815 38.498,226.870 38.530,227.016 38.687 C 227.233 38.920,227.650 38.982,229.295 39.023 C 230.402 39.050,231.269 39.137,231.220 39.214 C 231.172 39.292,231.017 39.312,230.876 39.258 C 230.663 39.176,230.655 39.202,230.830 39.413 C 230.953 39.560,231.312 39.667,231.687 39.667 C 232.111 39.667,232.448 39.781,232.667 40.000 C 232.932 40.265,233.222 40.333,234.083 40.333 C 234.895 40.333,235.167 40.391,235.167 40.564 C 235.167 40.856,235.682 40.995,236.772 40.998 C 237.487 41.000,237.642 41.055,237.715 41.333 C 237.772 41.552,237.942 41.667,238.209 41.667 C 238.432 41.667,238.751 41.817,238.917 42.000 C 239.095 42.197,239.430 42.333,239.736 42.333 C 240.073 42.333,240.326 42.450,240.461 42.667 C 240.604 42.895,240.850 43.000,241.242 43.000 C 241.556 43.000,241.867 43.087,241.933 43.192 C 242.011 43.319,241.971 43.343,241.817 43.263 C 241.689 43.197,241.729 43.260,241.907 43.404 C 242.085 43.549,242.395 43.667,242.596 43.667 C 242.821 43.667,242.995 43.795,243.048 44.000 C 243.107 44.223,243.276 44.333,243.558 44.333 C 243.791 44.333,244.080 44.474,244.201 44.647 C 244.321 44.819,244.569 44.989,244.752 45.024 C 244.934 45.059,245.083 45.198,245.083 45.333 C 245.083 45.468,245.221 45.605,245.390 45.638 C 245.559 45.670,245.840 45.840,246.015 46.015 C 246.190 46.190,246.483 46.333,246.667 46.333 C 246.856 46.333,247.000 46.444,247.000 46.591 C 247.000 46.924,247.742 47.667,248.076 47.667 C 248.222 47.667,248.333 47.810,248.333 48.000 C 248.333 48.222,248.444 48.333,248.667 48.333 C 248.910 48.333,249.000 48.444,249.000 48.744 C 249.000 48.969,249.138 49.288,249.307 49.452 C 249.475 49.616,249.660 49.881,249.718 50.042 C 249.776 50.202,249.938 50.333,250.078 50.333 C 250.250 50.333,250.333 50.495,250.333 50.832 C 250.333 51.150,250.454 51.406,250.667 51.539 C 250.862 51.661,251.000 51.927,251.000 52.184 C 251.000 52.425,251.150 52.812,251.333 53.045 C 251.517 53.279,251.667 53.647,251.667 53.864 C 251.667 54.082,251.817 54.368,252.000 54.500 C 252.273 54.697,252.333 54.931,252.333 55.802 C 252.333 56.724,252.377 56.876,252.667 56.952 C 252.850 57.000,253.000 57.139,253.000 57.262 C 253.000 57.551,253.782 58.333,254.071 58.333 C 254.194 58.333,254.334 58.483,254.382 58.667 C 254.462 58.976,254.609 59.000,256.391 59.000 L 258.313 59.000 258.365 63.316 C 258.411 67.148,258.449 67.668,258.708 67.954 C 258.933 68.203,259.000 68.571,259.000 69.566 C 259.000 71.499,259.386 71.922,260.397 71.096 C 260.785 70.778,260.862 70.604,260.800 70.185 C 260.759 69.900,260.786 69.667,260.862 69.667 C 260.938 69.667,261.000 67.267,261.000 64.333 L 261.000 59.000 262.875 58.995 C 265.380 58.988,265.667 58.780,265.667 56.965 C 265.667 55.927,265.716 55.716,266.000 55.539 C 266.329 55.333,266.333 55.151,266.331 39.957 C 266.329 24.430,266.313 23.833,265.897 23.833 C 265.712 23.833,265.667 23.380,265.667 21.532 C 265.667 19.686,265.615 19.166,265.404 18.907 C 265.260 18.729,265.186 18.672,265.240 18.780 C 265.294 18.888,265.272 19.018,265.191 19.068 C 265.110 19.118,265.044 19.030,265.045 18.871 C 265.050 16.952,264.972 16.196,264.738 15.907 C 264.593 15.729,264.530 15.689,264.597 15.817 C 264.677 15.971,264.652 16.011,264.526 15.933 C 264.420 15.867,264.333 15.556,264.333 15.242 C 264.333 14.850,264.228 14.604,264.000 14.461 C 263.817 14.347,263.667 14.089,263.667 13.888 C 263.667 13.420,263.245 13.000,262.775 13.000 C 262.573 13.000,262.279 12.850,262.122 12.667 C 261.912 12.421,261.630 12.333,261.056 12.333 C 260.547 12.333,260.164 12.232,259.954 12.042 C 259.462 11.597,251.418 11.597,251.093 12.042 C 250.918 12.282,250.617 12.333,249.388 12.333 C 248.127 12.333,247.841 12.385,247.538 12.667 C 247.220 12.963,246.950 13.000,245.090 13.000 C 243.222 13.000,242.965 13.035,242.667 13.333 C 242.400 13.600,242.107 13.668,241.208 13.671 C 239.512 13.678,236.978 13.955,236.778 14.156 C 236.459 14.474,203.253 14.397,202.764 14.077 C 202.435 13.862,201.744 13.829,198.354 13.869 C 196.142 13.895,194.333 13.860,194.333 13.792 C 194.333 13.723,190.883 13.667,186.667 13.667 C 179.222 13.667,178.990 13.657,178.667 13.333 C 178.342 13.009,178.111 13.000,169.667 13.000 L 161.000 13.000 161.000 9.352 L 161.000 5.704 161.562 5.598 C 162.098 5.498,162.125 5.458,162.139 4.749 C 162.161 3.675,162.122 3.667,157.261 3.667 L 153.000 3.667 153.000 4.667 M9.417 10.084 C 9.142 10.308,8.785 10.606,8.625 10.746 C 8.465 10.885,8.214 11.000,8.068 11.000 C 7.922 11.000,7.765 11.143,7.719 11.318 C 7.673 11.493,7.493 11.673,7.318 11.719 C 7.143 11.765,7.000 11.922,7.000 12.068 C 7.000 12.214,6.850 12.483,6.667 12.667 C 6.483 12.850,6.333 13.132,6.333 13.293 C 6.333 13.455,6.183 13.680,6.000 13.795 C 5.668 14.002,5.667 14.182,5.669 52.626 C 5.672 89.132,5.704 91.869,6.128 91.607 C 6.226 91.547,6.324 91.885,6.370 92.444 C 6.421 93.056,6.545 93.454,6.724 93.585 C 6.876 93.696,7.000 93.984,7.000 94.225 C 7.000 94.483,7.137 94.750,7.333 94.872 C 7.533 94.997,7.667 95.261,7.667 95.531 C 7.667 95.778,7.803 96.079,7.969 96.199 C 8.136 96.319,8.321 96.548,8.381 96.708 C 8.441 96.869,8.604 97.000,8.745 97.000 C 8.885 97.000,9.000 97.106,9.000 97.235 C 9.000 97.529,11.121 99.667,11.413 99.667 C 11.531 99.667,11.667 99.817,11.715 100.000 C 11.764 100.189,11.953 100.342,12.151 100.354 C 12.845 100.396,12.917 100.420,12.917 100.611 C 12.917 100.983,13.902 101.666,14.439 101.666 C 14.821 101.667,14.985 101.756,15.048 102.000 C 15.115 102.255,15.276 102.333,15.734 102.333 C 16.112 102.333,16.457 102.457,16.667 102.667 C 17.158 103.158,116.381 103.116,116.740 102.625 C 116.865 102.455,117.171 102.333,117.475 102.333 C 117.817 102.333,118.069 102.218,118.205 102.000 C 118.346 101.774,118.594 101.667,118.972 101.667 C 119.382 101.667,119.553 101.582,119.614 101.349 C 119.667 101.147,119.904 100.993,120.265 100.925 C 120.602 100.862,120.833 100.720,120.833 100.576 C 120.833 100.441,120.988 100.333,121.182 100.333 C 121.391 100.333,121.566 100.199,121.618 100.000 C 121.666 99.817,121.813 99.667,121.944 99.667 C 122.262 99.667,123.000 98.915,123.000 98.591 C 123.000 98.444,123.144 98.333,123.333 98.333 C 123.556 98.333,123.667 98.222,123.667 98.000 C 123.667 97.810,123.778 97.667,123.925 97.667 C 124.255 97.667,124.988 96.839,124.995 96.458 C 124.998 96.298,125.109 96.167,125.242 96.167 C 125.389 96.167,125.530 95.928,125.599 95.561 C 125.661 95.227,125.852 94.815,126.023 94.644 C 126.194 94.473,126.333 94.201,126.333 94.040 C 126.333 93.879,126.483 93.653,126.667 93.539 C 126.947 93.363,127.000 93.150,127.000 92.185 C 127.000 91.179,127.041 91.028,127.333 90.952 C 127.665 90.865,127.667 90.724,127.667 52.639 C 127.667 14.594,127.665 14.413,127.333 14.205 C 127.092 14.054,127.000 13.817,127.000 13.341 C 127.000 12.899,126.902 12.615,126.697 12.468 C 126.531 12.348,126.346 12.119,126.286 11.958 C 126.226 11.798,126.071 11.667,125.941 11.667 C 125.812 11.667,125.666 11.517,125.618 11.333 C 125.566 11.134,125.391 11.000,125.182 11.000 C 124.990 11.000,124.833 10.893,124.833 10.763 C 124.833 10.632,124.593 10.474,124.292 10.408 C 123.994 10.342,123.652 10.149,123.532 9.978 C 123.325 9.681,122.926 9.667,114.949 9.669 C 106.419 9.671,105.833 9.699,105.833 10.103 C 105.833 10.230,105.676 10.333,105.484 10.333 C 105.281 10.333,105.101 10.466,105.052 10.651 C 104.999 10.853,104.763 11.007,104.401 11.075 C 104.046 11.142,103.833 11.278,103.833 11.440 C 103.833 11.582,103.685 11.737,103.504 11.784 C 103.292 11.839,103.138 12.066,103.072 12.420 C 103.004 12.779,102.852 13.000,102.632 13.057 C 102.356 13.130,102.307 13.252,102.363 13.729 C 102.414 14.168,102.363 14.330,102.157 14.384 C 101.679 14.509,101.670 15.114,101.669 49.849 C 101.667 83.735,101.665 83.950,101.333 84.250 C 101.127 84.437,101.000 84.763,101.000 85.109 C 101.000 85.499,100.923 85.667,100.745 85.667 C 100.604 85.667,100.443 85.787,100.387 85.933 C 100.255 86.277,99.610 86.922,99.267 87.054 C 99.120 87.110,99.000 87.271,99.000 87.411 C 99.000 87.552,98.899 87.667,98.776 87.667 C 98.653 87.667,98.416 87.817,98.250 88.000 C 98.084 88.183,97.765 88.333,97.542 88.333 C 97.276 88.333,97.105 88.448,97.048 88.667 C 96.913 89.185,36.894 89.194,36.425 88.676 C 36.262 88.496,35.861 88.329,35.524 88.301 C 35.139 88.269,34.932 88.172,34.960 88.037 C 34.984 87.920,34.886 87.779,34.744 87.725 C 34.408 87.596,33.071 86.259,32.942 85.923 C 32.836 85.646,32.494 85.643,32.296 85.917 C 32.230 86.008,32.220 85.809,32.274 85.473 C 32.353 84.983,32.303 84.804,32.019 84.561 L 31.667 84.259 31.667 49.545 C 31.667 15.036,31.665 14.828,31.333 14.545 C 31.150 14.388,31.000 14.095,31.000 13.893 C 31.000 13.119,30.606 12.689,30.448 13.292 C 30.406 13.452,30.363 13.332,30.353 13.024 C 30.336 12.529,30.177 12.249,29.324 11.208 C 29.230 11.094,28.978 11.000,28.763 11.000 C 28.512 11.000,28.341 10.880,28.285 10.667 C 28.233 10.467,28.058 10.333,27.849 10.333 C 27.657 10.333,27.500 10.230,27.500 10.103 C 27.500 9.699,26.912 9.671,18.333 9.674 L 9.917 9.677 9.417 10.084 M284.125 9.781 C 283.965 9.823,283.833 9.965,283.833 10.096 C 283.833 10.263,283.631 10.333,283.151 10.333 C 282.609 10.333,282.451 10.402,282.382 10.667 C 282.318 10.910,282.153 11.001,281.772 11.002 C 280.999 11.006,280.500 11.176,280.500 11.436 C 280.500 11.567,280.331 11.667,280.109 11.667 C 279.894 11.667,279.583 11.817,279.417 12.000 C 279.251 12.183,279.018 12.333,278.900 12.333 C 278.782 12.333,278.588 12.470,278.468 12.636 C 278.348 12.802,278.110 12.991,277.939 13.055 C 277.726 13.135,277.657 13.278,277.719 13.514 C 277.847 14.004,277.320 14.483,276.769 14.378 C 276.410 14.309,276.333 14.357,276.333 14.647 C 276.333 14.853,276.227 15.000,276.078 15.000 C 275.938 15.000,275.774 15.131,275.714 15.292 C 275.654 15.452,275.469 15.681,275.303 15.801 C 275.136 15.921,275.000 16.148,275.000 16.306 C 275.000 16.464,274.850 16.701,274.667 16.833 C 274.483 16.965,274.333 17.233,274.333 17.428 C 274.333 17.622,274.183 17.917,274.000 18.083 C 273.817 18.249,273.667 18.505,273.667 18.652 C 273.667 18.799,273.517 19.013,273.333 19.128 C 273.053 19.303,273.000 19.517,273.000 20.482 C 273.000 21.506,272.963 21.638,272.650 21.719 C 272.322 21.805,272.304 21.903,272.359 23.306 C 272.391 24.129,272.360 24.767,272.292 24.724 C 272.223 24.682,272.167 24.739,272.167 24.851 C 272.167 24.964,272.118 25.007,272.060 24.948 C 272.001 24.890,272.057 24.708,272.185 24.546 C 272.396 24.277,272.390 24.271,272.125 24.479 C 271.715 24.801,271.669 47.219,272.078 47.760 C 272.243 47.978,272.324 48.504,272.328 49.374 C 272.333 50.480,272.381 50.694,272.667 50.872 C 272.937 51.041,273.000 51.261,273.000 52.040 C 273.000 52.778,273.077 53.077,273.333 53.333 C 273.517 53.517,273.667 53.805,273.667 53.974 C 273.667 54.143,273.817 54.417,274.000 54.583 C 274.183 54.749,274.333 55.030,274.333 55.208 C 274.333 55.386,274.476 55.569,274.651 55.614 C 274.853 55.667,275.007 55.904,275.075 56.265 C 275.134 56.578,275.273 56.833,275.384 56.833 C 275.496 56.833,275.774 57.065,276.002 57.348 C 276.872 58.428,277.541 59.000,277.933 59.000 C 278.181 59.000,278.333 59.097,278.333 59.255 C 278.333 59.396,278.465 59.558,278.625 59.615 C 278.785 59.673,279.051 59.858,279.215 60.027 C 279.379 60.195,279.689 60.333,279.904 60.333 C 280.154 60.333,280.326 60.453,280.382 60.667 C 280.447 60.916,280.609 61.000,281.028 61.000 C 281.406 61.000,281.654 61.108,281.795 61.333 C 281.927 61.546,282.183 61.667,282.501 61.667 C 282.778 61.667,283.149 61.815,283.333 62.000 C 283.589 62.256,283.889 62.333,284.627 62.333 C 285.406 62.333,285.626 62.396,285.795 62.667 C 285.986 62.973,286.183 63.000,288.258 63.000 C 290.284 63.000,290.550 63.034,290.872 63.333 C 291.227 63.665,291.460 63.667,327.256 63.667 C 363.070 63.667,363.283 63.669,363.583 64.000 C 363.762 64.198,364.097 64.333,364.405 64.333 C 364.720 64.333,365.039 64.465,365.211 64.667 C 365.368 64.850,365.685 65.000,365.915 65.000 C 366.175 65.000,366.333 65.094,366.333 65.250 C 366.333 65.387,366.633 65.818,367.000 66.207 C 367.367 66.596,367.667 67.008,367.667 67.123 C 367.667 67.237,367.817 67.424,368.000 67.539 C 368.271 67.708,368.333 67.927,368.333 68.707 C 368.333 69.444,368.411 69.744,368.667 70.000 C 369.067 70.400,369.201 82.356,368.808 82.599 C 368.681 82.677,368.657 82.638,368.737 82.484 C 368.803 82.355,368.740 82.396,368.596 82.574 C 368.420 82.790,368.333 83.238,368.333 83.929 C 368.333 84.821,368.288 84.973,368.000 85.048 C 367.801 85.100,367.667 85.276,367.667 85.484 C 367.667 85.683,367.559 85.833,367.417 85.833 C 367.279 85.833,367.167 85.914,367.167 86.013 C 367.167 86.246,366.246 87.167,366.013 87.167 C 365.914 87.167,365.833 87.274,365.833 87.405 C 365.833 87.536,365.665 87.667,365.458 87.697 C 365.252 87.726,365.083 87.862,365.083 88.000 C 365.083 88.171,364.875 88.267,364.426 88.304 C 364.037 88.335,363.654 88.489,363.490 88.679 C 363.042 89.195,301.087 89.183,300.952 88.667 C 300.893 88.442,300.724 88.333,300.434 88.333 C 300.183 88.333,299.916 88.194,299.795 88.000 C 299.680 87.817,299.455 87.667,299.293 87.667 C 299.132 87.667,299.000 87.547,299.000 87.402 C 299.000 87.256,298.840 87.007,298.645 86.849 C 298.317 86.584,298.281 86.345,298.178 83.780 C 298.105 81.982,297.995 80.928,297.866 80.799 C 297.756 80.690,297.667 80.202,297.667 79.715 C 297.667 79.036,297.589 78.764,297.333 78.545 C 297.150 78.388,297.000 78.084,297.000 77.869 C 297.000 77.341,295.328 75.667,294.801 75.667 C 294.588 75.667,294.320 75.517,294.205 75.333 C 294.062 75.103,293.817 75.000,293.415 75.000 C 293.031 75.000,292.833 74.922,292.833 74.769 C 292.833 74.374,292.254 74.338,285.800 74.336 C 279.696 74.333,278.667 74.409,278.667 74.860 C 278.667 74.937,278.498 75.001,278.292 75.002 C 277.655 75.006,277.167 75.195,277.167 75.436 C 277.167 75.588,276.970 75.667,276.593 75.667 C 276.229 75.667,275.939 75.778,275.801 75.969 C 275.681 76.136,275.452 76.321,275.292 76.381 C 275.131 76.441,275.000 76.596,275.000 76.725 C 275.000 76.855,274.850 77.000,274.667 77.048 C 274.483 77.096,274.333 77.255,274.333 77.401 C 274.333 77.547,274.218 77.667,274.078 77.667 C 273.938 77.667,273.774 77.798,273.714 77.958 C 273.654 78.119,273.469 78.348,273.303 78.468 C 273.116 78.602,273.000 78.895,273.000 79.234 C 273.000 79.570,272.871 79.898,272.667 80.083 C 272.347 80.373,272.333 80.597,272.333 85.625 C 272.333 90.724,272.342 90.867,272.667 90.952 C 272.959 91.028,273.000 91.179,273.000 92.185 C 273.000 93.150,273.053 93.363,273.333 93.539 C 273.517 93.653,273.667 93.879,273.667 94.040 C 273.667 94.201,273.817 94.483,274.000 94.667 C 274.183 94.850,274.333 95.150,274.333 95.333 C 274.333 95.517,274.477 95.810,274.652 95.985 C 274.827 96.160,274.996 96.441,275.029 96.610 C 275.061 96.779,275.181 96.926,275.294 96.938 C 275.407 96.949,275.573 96.968,275.661 96.979 C 275.750 96.991,275.778 97.117,275.723 97.260 C 275.656 97.434,275.741 97.551,275.978 97.613 C 276.182 97.666,276.333 97.839,276.333 98.019 C 276.333 98.222,276.451 98.333,276.667 98.333 C 276.856 98.333,277.000 98.444,277.000 98.591 C 277.000 98.915,277.738 99.667,278.056 99.667 C 278.187 99.667,278.334 99.817,278.382 100.000 C 278.430 100.183,278.588 100.333,278.734 100.333 C 278.880 100.333,279.150 100.483,279.333 100.667 C 279.517 100.850,279.808 101.000,279.981 101.000 C 280.154 101.000,280.333 101.149,280.382 101.333 C 280.447 101.583,280.609 101.667,281.028 101.667 C 281.406 101.667,281.654 101.774,281.795 102.000 C 281.931 102.218,282.183 102.333,282.525 102.333 C 282.829 102.333,283.135 102.455,283.260 102.625 C 283.592 103.079,383.075 103.079,383.407 102.625 C 383.530 102.456,383.837 102.333,384.134 102.333 C 384.452 102.333,384.733 102.211,384.872 102.013 C 384.998 101.833,385.342 101.669,385.658 101.638 C 386.040 101.601,386.234 101.490,386.262 101.292 C 386.311 100.952,386.151 100.916,385.867 101.200 C 385.733 101.334,385.667 101.340,385.667 101.218 C 385.667 100.967,386.025 100.852,386.515 100.946 C 386.791 100.999,387.028 100.911,387.239 100.679 C 387.411 100.489,387.697 100.333,387.875 100.333 C 388.058 100.333,388.236 100.189,388.285 100.000 C 388.333 99.817,388.470 99.667,388.590 99.667 C 388.883 99.667,390.333 98.201,390.333 97.904 C 390.333 97.773,390.483 97.667,390.667 97.667 C 390.850 97.667,391.000 97.560,391.000 97.430 C 391.000 97.300,391.300 96.882,391.667 96.500 C 392.033 96.118,392.333 95.643,392.333 95.443 C 392.333 95.244,392.483 94.987,392.667 94.872 C 392.863 94.750,393.000 94.483,393.000 94.225 C 393.000 93.984,393.124 93.696,393.276 93.585 C 393.455 93.454,393.579 93.056,393.630 92.444 C 393.676 91.885,393.774 91.547,393.872 91.607 C 394.283 91.862,394.328 90.395,394.331 76.645 C 394.333 61.899,394.309 61.247,393.776 61.779 C 393.716 61.840,393.663 61.820,393.659 61.736 C 393.655 61.652,393.635 61.196,393.614 60.723 C 393.592 60.183,393.470 59.743,393.289 59.543 C 393.130 59.367,393.000 59.054,393.000 58.846 C 393.000 58.609,392.876 58.436,392.667 58.382 C 392.433 58.320,392.333 58.154,392.333 57.823 C 392.333 57.559,392.200 57.257,392.031 57.134 C 391.864 57.015,391.679 56.785,391.619 56.625 C 391.559 56.465,391.396 56.333,391.255 56.333 C 391.111 56.333,391.000 56.188,391.000 56.000 C 391.000 55.778,390.889 55.667,390.667 55.667 C 390.483 55.667,390.333 55.558,390.333 55.424 C 390.333 55.110,389.556 54.333,389.242 54.333 C 389.109 54.333,389.000 54.218,389.000 54.078 C 389.000 53.938,388.869 53.774,388.708 53.714 C 388.548 53.654,388.319 53.469,388.199 53.303 C 388.079 53.136,387.884 53.000,387.766 53.000 C 387.648 53.000,387.416 52.850,387.250 52.667 C 387.084 52.483,386.810 52.333,386.641 52.333 C 386.472 52.333,386.183 52.183,386.000 52.000 C 385.785 51.785,385.444 51.667,385.040 51.667 C 384.594 51.667,384.354 51.571,384.205 51.333 C 384.079 51.130,383.817 51.000,383.536 51.000 C 383.280 51.000,382.947 50.851,382.789 50.667 C 382.558 50.397,382.297 50.333,381.418 50.333 C 380.556 50.333,380.265 50.265,380.000 50.000 C 379.669 49.669,379.444 49.667,342.040 49.667 C 304.594 49.667,304.413 49.665,304.205 49.333 C 304.056 49.094,303.817 49.000,303.358 49.000 C 302.930 49.000,302.618 48.890,302.417 48.667 C 302.230 48.460,301.903 48.333,301.558 48.333 C 301.158 48.333,301.000 48.258,301.000 48.068 C 301.000 47.922,300.850 47.763,300.667 47.715 C 300.483 47.667,300.333 47.517,300.333 47.382 C 300.333 47.246,300.183 47.096,300.000 47.048 C 299.817 47.000,299.667 46.850,299.667 46.715 C 299.667 46.580,299.517 46.430,299.333 46.382 C 299.099 46.320,299.000 46.154,299.000 45.823 C 299.000 45.524,298.864 45.257,298.625 45.090 L 298.250 44.827 298.197 37.206 C 298.151 30.404,298.115 29.550,297.869 29.251 C 297.717 29.067,297.699 29.010,297.829 29.125 C 298.212 29.461,298.333 29.371,298.333 28.750 C 298.333 28.357,298.411 28.167,298.570 28.167 C 298.700 28.167,298.856 27.942,298.917 27.667 C 299.025 27.173,300.242 25.801,300.742 25.609 C 300.884 25.555,301.000 25.396,301.000 25.255 C 301.000 25.115,301.120 25.000,301.266 25.000 C 301.412 25.000,301.570 24.850,301.618 24.667 C 301.695 24.374,301.846 24.333,302.851 24.333 C 303.818 24.333,304.030 24.281,304.206 23.999 C 304.534 23.473,364.711 23.476,365.040 24.002 C 365.187 24.237,365.428 24.333,365.873 24.333 C 366.319 24.333,366.500 24.405,366.500 24.583 C 366.500 24.721,366.581 24.833,366.679 24.833 C 366.913 24.833,367.833 25.754,367.833 25.987 C 367.833 26.086,367.946 26.167,368.083 26.167 C 368.269 26.167,368.333 26.361,368.333 26.917 C 368.333 27.444,368.432 27.765,368.667 28.000 C 368.964 28.297,369.000 28.556,369.000 30.385 C 369.000 32.003,369.055 32.505,369.262 32.760 C 369.407 32.938,369.470 32.978,369.403 32.849 C 369.323 32.695,369.348 32.656,369.474 32.734 C 369.580 32.799,369.667 33.110,369.667 33.425 C 369.667 33.817,369.772 34.063,370.000 34.205 C 370.183 34.320,370.333 34.527,370.333 34.665 C 370.332 35.146,372.528 36.992,373.106 36.996 C 373.493 36.999,373.651 37.090,373.719 37.347 C 373.793 37.630,373.918 37.685,374.401 37.643 C 374.747 37.613,375.080 37.687,375.205 37.821 C 375.378 38.007,375.374 38.024,375.183 37.915 C 375.021 37.823,374.987 37.845,375.074 37.986 C 375.144 38.098,375.305 38.149,375.434 38.100 C 375.562 38.051,375.667 38.086,375.667 38.178 C 375.667 38.515,387.824 38.300,388.074 37.958 C 388.211 37.771,388.509 37.667,388.909 37.667 C 389.391 37.667,389.551 37.592,389.618 37.333 C 389.684 37.081,389.846 37.000,390.285 37.000 C 390.715 37.000,390.886 36.918,390.948 36.682 C 390.993 36.507,391.174 36.327,391.349 36.281 C 391.524 36.235,391.667 36.078,391.667 35.932 C 391.667 35.778,391.806 35.667,392.000 35.667 C 392.215 35.667,392.333 35.556,392.333 35.353 C 392.333 35.179,392.482 35.000,392.667 34.952 C 392.850 34.904,393.000 34.745,393.000 34.599 C 393.000 34.453,393.150 34.183,393.333 34.000 C 393.517 33.817,393.667 33.533,393.667 33.370 C 393.667 33.207,393.817 32.946,394.000 32.789 C 394.460 32.395,394.525 22.133,394.071 21.574 C 393.927 21.396,393.853 21.339,393.907 21.447 C 393.961 21.555,393.939 21.685,393.858 21.735 C 393.777 21.785,393.711 21.696,393.712 21.538 C 393.715 20.290,393.634 19.861,393.333 19.538 C 393.150 19.342,393.000 19.020,393.000 18.825 C 393.000 18.609,392.869 18.434,392.667 18.382 C 392.415 18.316,392.333 18.154,392.333 17.723 C 392.333 17.111,391.732 16.333,391.258 16.333 C 391.073 16.333,391.000 16.164,391.000 15.734 C 391.000 15.276,390.922 15.115,390.667 15.048 C 390.483 15.000,390.333 14.850,390.333 14.715 C 390.333 14.580,390.183 14.430,390.000 14.382 C 389.817 14.334,389.667 14.184,389.667 14.048 C 389.667 13.913,389.524 13.765,389.349 13.719 C 389.174 13.673,388.993 13.493,388.948 13.318 C 388.902 13.143,388.745 13.000,388.599 13.000 C 388.453 13.000,388.202 12.885,388.042 12.744 C 387.339 12.127,386.688 11.667,386.518 11.667 C 386.416 11.667,386.183 11.517,386.000 11.333 C 385.785 11.118,385.444 11.000,385.040 11.000 C 384.594 11.000,384.354 10.904,384.205 10.667 C 384.069 10.449,383.817 10.333,383.475 10.333 C 383.171 10.333,382.865 10.212,382.740 10.042 C 382.537 9.764,285.170 9.506,284.125 9.781 M30.007 12.346 C 30.177 12.663,30.163 12.676,29.841 12.504 C 29.648 12.401,29.535 12.245,29.589 12.158 C 29.731 11.928,29.800 11.959,30.007 12.346 M259.910 12.155 C 259.962 12.240,259.918 12.365,259.810 12.431 C 259.688 12.506,259.660 12.479,259.734 12.359 C 259.799 12.253,259.774 12.167,259.677 12.167 C 259.579 12.167,259.500 12.254,259.500 12.361 C 259.500 12.468,259.455 12.511,259.400 12.456 C 259.275 12.331,259.469 12.000,259.667 12.000 C 259.748 12.000,259.857 12.070,259.910 12.155 M279.910 12.155 C 280.033 12.355,279.719 12.552,279.497 12.415 C 279.311 12.300,279.433 12.000,279.667 12.000 C 279.748 12.000,279.857 12.070,279.910 12.155 M277.044 14.024 C 277.030 14.205,277.107 14.282,277.248 14.228 C 277.606 14.090,277.691 13.686,277.357 13.711 C 277.197 13.723,277.056 13.864,277.044 14.024 M371.206 35.076 C 371.274 35.432,371.244 35.464,370.976 35.320 C 370.806 35.229,370.667 35.116,370.667 35.068 C 370.667 35.020,370.742 35.027,370.833 35.083 C 370.925 35.140,371.000 35.069,371.000 34.927 C 371.000 34.531,371.118 34.616,371.206 35.076 M199.190 37.747 C 199.357 37.651,199.370 37.669,199.236 37.814 C 199.025 38.044,198.453 37.878,198.605 37.631 C 198.670 37.526,198.755 37.541,198.836 37.670 C 198.909 37.789,199.059 37.821,199.190 37.747 M274.435 54.454 C 274.258 54.631,274.112 54.561,274.071 54.282 C 274.035 54.038,274.072 54.019,274.267 54.181 C 274.400 54.291,274.475 54.414,274.435 54.454 M230.167 61.131 C 230.167 61.203,230.317 61.274,230.500 61.288 C 230.683 61.301,230.833 61.242,230.833 61.156 C 230.833 61.070,230.683 61.000,230.500 61.000 C 230.317 61.000,230.167 61.059,230.167 61.131 M230.167 62.202 C 230.167 62.274,230.317 62.333,230.500 62.333 C 230.683 62.333,230.833 62.263,230.833 62.177 C 230.833 62.091,230.683 62.032,230.500 62.046 C 230.317 62.060,230.167 62.130,230.167 62.202 M260.333 70.917 C 259.923 71.354,259.589 71.446,259.418 71.169 C 259.361 71.076,259.424 71.045,259.562 71.098 C 259.697 71.150,259.963 71.037,260.154 70.846 C 260.646 70.354,260.804 70.416,260.333 70.917 M139.541 90.193 C 139.564 92.269,139.527 93.934,139.458 93.891 C 139.390 93.849,139.350 91.212,139.370 88.032 C 139.406 82.286,139.460 82.967,139.541 90.193 M387.257 100.489 C 387.196 100.587,387.034 100.667,386.897 100.667 C 386.759 100.667,386.694 100.590,386.752 100.497 C 386.809 100.404,386.926 100.371,387.012 100.424 C 387.097 100.477,387.167 100.428,387.167 100.315 C 387.167 100.203,387.212 100.156,387.267 100.211 C 387.322 100.266,387.317 100.391,387.257 100.489 M5.200 113.200 C 4.988 113.412,4.899 127.691,5.105 128.458 C 5.160 128.665,5.309 128.833,5.436 128.833 C 5.591 128.833,5.667 129.038,5.669 129.458 C 5.672 130.329,5.831 130.833,6.103 130.833 C 6.230 130.833,6.333 130.990,6.333 131.182 C 6.333 131.391,6.467 131.566,6.667 131.618 C 6.850 131.666,7.000 131.816,7.000 131.952 C 7.000 132.087,7.143 132.235,7.318 132.281 C 7.493 132.327,7.673 132.507,7.719 132.682 C 7.781 132.918,7.952 133.000,8.382 133.000 C 8.829 133.000,8.982 133.079,9.052 133.347 C 9.128 133.638,9.252 133.686,9.819 133.645 C 10.246 133.614,10.574 133.683,10.706 133.832 C 10.876 134.022,10.855 134.020,10.598 133.825 C 10.319 133.614,10.289 133.614,10.359 133.826 C 10.564 134.444,16.624 134.560,17.288 133.958 C 17.465 133.798,17.843 133.667,18.129 133.667 C 18.430 133.667,18.739 133.544,18.866 133.374 C 18.985 133.212,19.308 133.005,19.583 132.913 C 19.938 132.795,20.130 132.589,20.243 132.207 C 20.331 131.910,20.496 131.667,20.610 131.667 C 20.877 131.667,21.667 130.881,21.667 130.616 C 21.667 130.505,21.817 130.319,22.002 130.204 C 22.331 129.999,22.336 129.851,22.293 121.539 L 22.250 113.083 19.629 113.037 C 15.948 112.973,16.333 112.068,16.333 120.774 L 16.333 127.881 15.792 128.439 C 15.483 128.756,15.082 128.997,14.859 128.998 C 14.610 128.999,14.437 129.120,14.382 129.333 C 14.334 129.517,14.171 129.667,14.021 129.667 C 13.870 129.667,13.653 129.517,13.539 129.333 C 13.414 129.133,13.148 128.999,12.874 128.997 C 12.386 128.994,11.667 128.373,11.667 127.955 C 11.667 127.819,11.540 127.605,11.385 127.479 C 11.224 127.348,11.153 127.335,11.221 127.447 C 11.286 127.555,11.268 127.687,11.182 127.741 C 11.084 127.801,11.018 125.070,11.006 120.560 C 10.997 116.558,10.949 113.219,10.901 113.141 C 10.759 112.911,5.434 112.966,5.200 113.200 M26.535 113.198 C 26.207 113.526,26.259 117.735,26.595 118.071 C 26.809 118.285,27.298 118.333,29.257 118.333 L 31.657 118.333 31.704 126.153 C 31.729 130.454,31.813 134.035,31.889 134.111 C 32.267 134.489,36.791 134.265,37.237 133.846 L 37.667 133.442 37.667 125.888 L 37.667 118.333 39.813 118.333 C 42.509 118.333,42.355 118.510,42.296 115.477 L 42.250 113.083 34.493 113.040 C 28.599 113.007,26.688 113.045,26.535 113.198 M49.867 113.200 C 49.757 113.310,49.667 113.593,49.667 113.830 C 49.667 114.066,49.517 114.388,49.333 114.545 C 49.077 114.764,49.000 115.036,49.000 115.723 C 49.000 116.403,48.921 116.687,48.667 116.917 C 48.416 117.144,48.333 117.430,48.333 118.072 C 48.333 118.720,48.253 118.995,48.000 119.211 C 47.817 119.368,47.667 119.692,47.667 119.930 C 47.667 120.169,47.517 120.555,47.333 120.788 C 47.098 121.086,47.000 121.464,47.000 122.066 C 47.000 122.739,46.930 122.964,46.667 123.128 C 46.412 123.287,46.333 123.517,46.333 124.100 C 46.333 124.612,46.223 125.004,46.000 125.288 C 45.781 125.566,45.667 125.964,45.667 126.446 C 45.667 127.054,45.616 127.173,45.375 127.132 C 45.127 127.091,45.076 127.242,45.033 128.155 C 44.994 128.990,44.907 129.292,44.638 129.525 C 44.338 129.785,44.308 129.939,44.407 130.729 C 44.469 131.227,44.454 131.676,44.373 131.726 C 44.292 131.776,44.231 131.674,44.238 131.499 C 44.244 131.324,44.175 131.182,44.083 131.183 C 43.992 131.185,43.927 131.294,43.940 131.426 C 43.953 131.559,43.896 131.667,43.815 131.667 C 43.569 131.667,43.643 133.571,43.903 133.926 C 44.119 134.222,44.357 134.250,46.636 134.250 L 49.132 134.250 49.732 133.613 C 50.274 133.040,50.333 132.884,50.333 132.053 C 50.333 130.518,50.621 130.339,53.083 130.341 L 55.083 130.342 55.375 130.976 C 55.535 131.324,55.667 131.892,55.667 132.237 C 55.667 132.713,55.743 132.885,55.982 132.947 C 56.166 132.995,56.338 133.232,56.395 133.518 C 56.539 134.238,57.078 134.369,59.639 134.305 C 62.213 134.241,62.293 134.196,62.310 132.766 C 62.317 132.108,62.237 131.792,61.993 131.531 C 61.751 131.271,61.667 130.944,61.667 130.266 C 61.667 129.566,61.594 129.301,61.358 129.134 C 61.148 128.987,61.022 128.635,60.965 128.040 C 60.920 127.558,60.759 127.027,60.608 126.860 C 60.457 126.693,60.333 126.286,60.333 125.955 C 60.333 125.547,60.229 125.279,60.010 125.126 C 59.771 124.958,59.673 124.662,59.635 123.991 C 59.598 123.345,59.520 123.097,59.363 123.129 C 59.241 123.154,59.186 123.103,59.240 123.016 C 59.294 122.928,59.263 122.809,59.169 122.752 C 59.076 122.694,59.000 122.441,59.000 122.189 C 59.000 121.937,58.887 121.585,58.750 121.407 C 58.503 121.088,58.501 121.088,58.609 121.417 C 58.670 121.600,58.665 121.701,58.597 121.640 C 58.427 121.488,58.361 121.063,58.346 120.026 C 58.335 119.282,58.279 119.121,58.000 119.048 C 57.722 118.976,57.666 118.820,57.664 118.106 C 57.661 117.015,57.522 116.500,57.231 116.500 C 57.078 116.500,57.000 116.302,57.000 115.918 C 57.000 115.517,56.897 115.272,56.667 115.128 C 56.413 114.969,56.333 114.739,56.333 114.160 C 56.333 113.009,56.308 113.000,53.000 113.000 C 50.941 113.000,50.007 113.060,49.867 113.200 M65.871 113.196 C 65.714 113.352,65.667 115.762,65.667 123.508 C 65.667 135.625,65.268 134.250,68.781 134.250 C 71.912 134.250,71.667 134.613,71.667 129.968 L 71.667 126.333 74.333 126.333 L 77.000 126.333 77.000 129.889 C 77.000 133.664,77.015 133.757,77.564 133.472 C 77.758 133.371,77.861 133.348,77.793 133.420 C 77.725 133.493,77.763 133.668,77.876 133.808 C 78.047 134.020,78.040 134.042,77.833 133.936 C 77.696 133.866,77.729 133.927,77.907 134.071 C 78.297 134.387,82.333 134.465,82.333 134.157 C 82.333 134.060,82.408 134.027,82.500 134.083 C 82.848 134.298,83.058 133.955,82.734 133.702 C 82.432 133.467,82.432 133.460,82.727 133.563 C 82.958 133.643,83.013 133.607,82.940 133.419 C 82.887 133.280,82.916 133.167,83.005 133.167 C 83.094 133.167,83.167 133.279,83.167 133.417 C 83.167 133.747,83.437 133.737,83.566 133.403 C 83.893 132.551,83.664 113.875,83.321 113.439 L 82.976 113.000 80.353 113.000 C 76.782 113.000,77.095 112.600,77.033 117.236 L 76.982 121.000 74.327 121.000 L 71.673 121.000 71.628 117.042 L 71.583 113.083 68.829 113.038 C 66.827 113.005,66.019 113.048,65.871 113.196 M103.128 113.333 C 103.013 113.517,102.788 113.667,102.627 113.667 C 102.465 113.667,102.183 113.817,102.000 114.000 C 101.817 114.183,101.517 114.333,101.333 114.333 C 101.111 114.333,101.000 114.444,101.000 114.667 C 101.000 114.856,100.889 115.000,100.742 115.000 C 100.469 115.000,99.681 115.799,99.672 116.085 C 99.669 116.177,99.517 116.347,99.333 116.461 C 99.074 116.623,99.000 116.850,99.000 117.482 C 99.000 118.154,98.942 118.309,98.667 118.382 C 98.378 118.457,98.333 118.611,98.328 119.526 C 98.325 120.190,98.232 120.704,98.078 120.907 C 97.889 121.157,97.833 121.783,97.833 123.667 C 97.833 125.551,97.889 126.176,98.078 126.426 C 98.232 126.630,98.325 127.143,98.328 127.807 C 98.333 128.722,98.378 128.876,98.667 128.952 C 98.928 129.020,99.000 129.179,99.000 129.686 C 99.000 130.111,99.114 130.448,99.333 130.667 C 99.517 130.850,99.667 131.120,99.667 131.266 C 99.667 131.412,99.817 131.570,100.000 131.618 C 100.183 131.666,100.333 131.816,100.333 131.952 C 100.333 132.087,100.476 132.235,100.651 132.281 C 100.826 132.327,101.007 132.507,101.052 132.682 C 101.114 132.918,101.285 133.000,101.715 133.000 C 102.154 133.000,102.316 133.081,102.382 133.333 C 102.436 133.543,102.609 133.667,102.846 133.667 C 103.054 133.667,103.365 133.795,103.538 133.951 C 103.793 134.182,103.912 134.198,104.170 134.037 C 104.433 133.872,104.471 133.881,104.393 134.086 C 104.227 134.517,109.384 134.442,110.250 134.000 C 110.610 133.817,111.045 133.667,111.218 133.667 C 111.391 133.667,111.570 133.518,111.618 133.333 C 111.678 133.107,111.847 132.999,112.144 132.998 C 112.590 132.996,113.667 132.072,113.667 131.691 C 113.667 131.586,113.770 131.500,113.897 131.500 C 114.169 131.500,114.328 130.995,114.331 130.118 C 114.333 129.715,114.456 129.354,114.673 129.121 C 114.960 128.813,115.006 128.575,114.965 127.587 L 114.917 126.417 112.000 126.417 L 109.083 126.417 109.031 127.143 C 109.000 127.572,108.847 128.012,108.656 128.216 C 108.479 128.407,108.333 128.661,108.333 128.781 C 108.333 128.902,108.183 129.000,108.000 129.000 C 107.817 129.000,107.517 129.150,107.333 129.333 C 107.150 129.517,106.942 129.667,106.870 129.667 C 106.799 129.667,106.632 129.517,106.500 129.333 C 106.368 129.150,106.126 129.000,105.963 129.000 C 105.595 129.000,105.000 128.424,105.000 128.068 C 105.000 127.922,104.850 127.763,104.667 127.715 C 104.345 127.631,104.333 127.488,104.333 123.687 C 104.333 119.927,104.349 119.737,104.667 119.539 C 104.879 119.406,105.000 119.150,105.000 118.832 C 105.000 118.371,105.045 118.333,105.599 118.333 C 106.058 118.333,106.218 118.255,106.285 118.000 C 106.333 117.817,106.497 117.667,106.649 117.667 C 106.801 117.667,107.054 117.817,107.211 118.000 C 107.368 118.183,107.676 118.333,107.896 118.333 C 108.156 118.333,108.325 118.451,108.383 118.671 C 108.432 118.857,108.534 118.999,108.611 118.985 C 109.004 118.916,109.083 119.079,109.083 119.958 L 109.083 120.917 112.000 120.917 L 114.917 120.917 114.965 119.464 C 115.008 118.154,114.979 117.990,114.673 117.799 C 114.418 117.640,114.333 117.410,114.333 116.883 C 114.333 116.419,114.229 116.078,114.027 115.881 C 113.858 115.718,113.673 115.452,113.615 115.292 C 113.558 115.131,113.404 115.000,113.275 115.000 C 113.145 115.000,112.997 114.842,112.947 114.648 C 112.869 114.350,112.754 114.306,112.191 114.360 C 111.827 114.394,111.559 114.372,111.598 114.310 C 111.722 114.109,111.471 113.667,111.232 113.667 C 111.104 113.667,110.850 113.517,110.667 113.333 C 110.355 113.021,110.111 113.000,106.835 113.000 C 103.517 113.000,103.325 113.017,103.128 113.333 M124.792 113.115 C 124.631 113.157,124.500 113.298,124.500 113.429 C 124.500 113.571,124.333 113.667,124.083 113.667 C 123.778 113.667,123.667 113.756,123.667 114.000 C 123.667 114.271,123.556 114.333,123.068 114.333 C 122.609 114.333,122.448 114.411,122.382 114.667 C 122.334 114.850,122.184 115.000,122.048 115.000 C 121.913 115.000,121.763 115.150,121.715 115.333 C 121.667 115.517,121.522 115.667,121.392 115.667 C 121.262 115.667,121.107 115.798,121.047 115.958 C 120.988 116.119,120.795 116.353,120.620 116.479 C 120.390 116.644,120.319 116.858,120.364 117.246 C 120.418 117.700,120.375 117.781,120.089 117.767 C 119.777 117.751,119.746 117.863,119.701 119.149 C 119.663 120.235,119.579 120.642,119.326 120.964 C 118.961 121.428,118.816 125.833,119.167 125.833 C 119.258 125.833,119.315 125.927,119.292 126.042 C 119.269 126.156,119.344 126.231,119.458 126.208 C 119.613 126.177,119.667 126.570,119.667 127.741 C 119.667 129.088,119.711 129.346,119.978 129.532 C 120.149 129.652,120.342 129.994,120.408 130.292 C 120.474 130.593,120.632 130.833,120.763 130.833 C 120.893 130.833,121.000 130.990,121.000 131.182 C 121.000 131.391,121.134 131.566,121.333 131.618 C 121.517 131.666,121.667 131.812,121.667 131.941 C 121.667 132.071,121.798 132.226,121.958 132.286 C 122.119 132.346,122.348 132.531,122.468 132.697 C 122.590 132.867,122.893 133.000,123.157 133.000 C 123.488 133.000,123.654 133.099,123.715 133.333 C 123.763 133.518,123.942 133.667,124.116 133.667 C 124.288 133.667,124.724 133.817,125.083 134.000 C 126.214 134.576,131.457 134.450,131.616 133.843 C 131.670 133.637,131.832 133.586,132.271 133.637 C 132.755 133.694,132.870 133.646,132.947 133.353 C 133.011 133.107,133.172 132.999,133.478 132.998 C 133.865 132.997,135.000 132.090,135.000 131.783 C 135.000 131.728,135.186 131.483,135.414 131.238 C 135.641 130.992,135.790 130.731,135.744 130.657 C 135.699 130.583,135.749 130.469,135.856 130.402 C 135.990 130.320,136.007 130.356,135.910 130.516 C 135.790 130.715,135.811 130.716,136.051 130.521 C 136.226 130.380,136.333 130.053,136.333 129.666 C 136.333 129.179,136.408 129.019,136.667 128.952 C 136.934 128.882,137.001 128.722,137.005 128.141 C 137.008 127.742,137.121 127.271,137.255 127.093 C 137.613 126.620,137.613 120.713,137.255 120.240 C 137.121 120.062,137.008 119.591,137.005 119.193 C 137.001 118.611,136.934 118.452,136.667 118.382 C 136.424 118.318,136.333 118.153,136.331 117.772 C 136.328 117.009,136.159 116.500,135.908 116.500 C 135.788 116.500,135.642 116.350,135.583 116.167 C 135.525 115.983,135.406 115.833,135.318 115.833 C 135.230 115.833,135.087 115.646,135.000 115.417 C 134.913 115.188,134.745 115.000,134.628 115.000 C 134.510 115.000,134.320 114.850,134.205 114.667 C 134.076 114.459,133.817 114.333,133.518 114.333 C 133.179 114.333,133.013 114.236,132.952 114.000 C 132.902 113.811,132.713 113.658,132.516 113.646 C 131.867 113.607,131.807 113.584,131.593 113.292 C 131.387 113.010,125.754 112.863,124.792 113.115 M142.000 113.333 C 141.674 113.659,141.667 113.889,141.667 123.556 C 141.667 133.426,141.685 133.831,142.114 133.475 C 142.239 133.371,142.390 133.334,142.448 133.393 C 142.507 133.452,142.454 133.500,142.329 133.500 C 142.180 133.500,142.213 133.589,142.426 133.762 C 142.604 133.907,142.637 133.976,142.500 133.917 C 142.362 133.857,142.400 133.931,142.583 134.081 C 142.945 134.377,147.154 134.403,147.445 134.111 C 147.521 134.035,147.605 131.774,147.632 129.087 C 147.679 124.331,147.689 124.204,148.007 124.287 C 148.236 124.347,148.333 124.516,148.333 124.851 C 148.333 125.150,148.459 125.409,148.667 125.539 C 148.850 125.653,149.000 125.862,149.000 126.003 C 149.000 126.144,149.150 126.368,149.333 126.500 C 149.517 126.632,149.667 126.900,149.667 127.094 C 149.667 127.289,149.817 127.584,150.000 127.750 C 150.183 127.916,150.333 128.138,150.333 128.244 C 150.333 128.350,150.451 128.582,150.596 128.760 C 150.740 128.938,150.803 128.978,150.737 128.849 C 150.663 128.708,150.683 128.657,150.786 128.721 C 150.879 128.779,151.004 129.128,151.063 129.496 C 151.133 129.931,151.258 130.167,151.419 130.167 C 151.571 130.167,151.667 130.325,151.667 130.575 C 151.667 130.799,151.853 131.193,152.081 131.450 C 152.308 131.707,152.590 132.026,152.706 132.159 C 152.822 132.292,152.954 132.622,153.000 132.892 C 153.046 133.161,153.232 133.465,153.413 133.566 C 153.594 133.667,153.832 133.862,153.941 134.000 C 154.379 134.553,158.632 134.442,159.303 133.860 L 159.667 133.544 159.667 123.459 C 159.667 115.077,159.628 113.342,159.436 113.183 C 159.278 113.052,158.348 113.006,156.478 113.037 L 153.750 113.083 153.663 118.083 C 153.615 120.833,153.559 122.952,153.538 122.792 C 153.517 122.631,153.387 122.500,153.250 122.500 C 153.094 122.500,153.000 122.343,153.000 122.083 C 153.000 121.854,152.850 121.517,152.667 121.333 C 152.483 121.150,152.333 120.880,152.333 120.734 C 152.333 120.588,152.183 120.430,152.000 120.382 C 151.766 120.320,151.667 120.154,151.667 119.823 C 151.667 119.552,151.535 119.260,151.356 119.134 C 151.185 119.015,150.991 118.673,150.926 118.375 C 150.860 118.074,150.702 117.833,150.570 117.833 C 150.440 117.833,150.333 117.676,150.333 117.484 C 150.333 117.279,150.200 117.101,150.009 117.051 C 149.776 116.990,149.670 116.795,149.634 116.358 C 149.600 115.951,149.501 115.750,149.333 115.750 C 149.173 115.750,149.065 115.555,149.031 115.203 C 149.000 114.885,148.843 114.571,148.656 114.454 C 148.478 114.344,148.333 114.134,148.333 113.989 C 148.333 112.979,142.915 112.418,142.000 113.333 M163.175 113.240 C 162.945 113.517,162.986 117.876,163.222 118.112 C 163.298 118.188,164.477 118.274,165.842 118.304 L 168.324 118.357 168.370 126.165 C 168.396 130.459,168.479 134.035,168.556 134.111 C 168.934 134.489,173.457 134.265,173.903 133.846 L 174.333 133.442 174.333 125.892 L 174.333 118.343 176.625 118.296 L 178.917 118.250 178.917 115.667 L 178.917 113.083 171.147 113.040 C 164.509 113.003,163.348 113.032,163.175 113.240 M183.111 113.111 C 182.864 113.358,182.986 133.584,183.236 133.926 C 183.443 134.209,183.726 134.257,185.488 134.309 C 189.091 134.415,189.000 134.520,189.000 130.272 L 189.000 127.000 190.333 127.000 C 192.184 127.000,192.333 127.162,192.333 129.167 C 192.333 130.674,192.399 130.843,192.837 130.458 C 192.968 130.344,192.945 130.406,192.787 130.596 C 192.437 131.019,192.423 131.274,192.740 131.451 C 192.898 131.539,192.999 131.931,193.032 132.585 C 193.081 133.543,193.101 133.582,193.514 133.556 C 193.781 133.539,193.944 133.615,193.944 133.757 C 193.944 133.882,193.863 133.946,193.764 133.897 C 193.665 133.848,193.733 133.931,193.917 134.081 C 194.437 134.506,198.817 134.385,199.316 133.933 C 199.785 133.508,199.794 132.460,199.333 132.000 C 199.150 131.817,199.000 131.478,199.000 131.248 C 199.000 131.018,198.850 130.702,198.667 130.545 C 198.363 130.285,198.333 130.053,198.333 127.963 C 198.333 125.962,198.294 125.628,198.029 125.362 C 197.862 125.195,197.676 124.931,197.616 124.775 C 197.556 124.620,197.380 124.444,197.225 124.384 C 196.516 124.112,196.380 123.761,196.914 123.583 C 197.269 123.466,197.462 123.261,197.573 122.886 C 197.659 122.595,197.865 122.320,198.031 122.277 C 198.475 122.161,198.493 117.171,198.051 116.812 C 197.808 116.615,197.789 116.618,197.911 116.833 C 197.991 116.974,197.990 117.026,197.909 116.952 C 197.830 116.880,197.739 116.624,197.707 116.384 C 197.633 115.835,197.005 115.021,196.644 115.009 C 196.495 115.004,196.333 114.850,196.285 114.667 C 196.219 114.414,196.058 114.333,195.618 114.333 C 195.179 114.333,195.018 114.253,194.952 114.000 C 194.886 113.750,194.724 113.667,194.306 113.667 C 193.927 113.667,193.680 113.559,193.539 113.333 C 193.328 112.996,183.437 112.786,183.111 113.111 M208.533 113.200 C 208.423 113.310,208.333 113.592,208.333 113.827 C 208.333 114.073,208.192 114.341,208.000 114.461 C 207.732 114.629,207.667 114.850,207.667 115.592 C 207.667 116.284,207.583 116.603,207.333 116.872 C 207.134 117.086,207.000 117.460,207.000 117.805 C 207.000 118.140,206.889 118.461,206.733 118.575 C 206.581 118.686,206.427 119.118,206.375 119.576 C 206.323 120.037,206.152 120.515,205.976 120.691 C 205.746 120.920,205.667 121.248,205.667 121.960 C 205.667 122.739,205.604 122.959,205.333 123.128 C 205.115 123.264,205.000 123.517,205.000 123.858 C 205.000 124.151,204.879 124.468,204.724 124.582 C 204.545 124.713,204.421 125.110,204.371 125.717 C 204.319 126.346,204.191 126.744,203.980 126.935 C 203.743 127.149,203.667 127.450,203.667 128.167 C 203.667 128.903,203.592 129.182,203.333 129.417 C 203.096 129.631,203.000 129.930,203.000 130.452 C 203.000 130.948,202.940 131.149,202.815 131.072 C 202.501 130.878,202.339 131.367,202.336 132.510 C 202.332 134.243,202.343 134.250,205.291 134.250 L 207.776 134.250 208.342 133.684 C 208.856 133.170,208.915 133.011,208.973 131.975 C 209.020 131.144,209.100 130.833,209.269 130.833 C 209.396 130.833,209.500 130.721,209.500 130.583 C 209.500 130.374,209.843 130.333,211.583 130.333 C 213.556 130.333,213.667 130.351,213.667 130.667 C 213.667 130.850,213.817 131.150,214.000 131.333 C 214.210 131.543,214.333 131.889,214.333 132.266 C 214.333 132.715,214.413 132.885,214.651 132.948 C 214.852 133.000,215.007 133.236,215.074 133.592 C 215.208 134.309,215.581 134.389,218.424 134.309 C 220.868 134.240,221.000 134.161,221.000 132.750 C 221.000 132.127,220.910 131.800,220.667 131.538 C 220.417 131.270,220.333 130.950,220.333 130.258 C 220.333 129.517,220.268 129.295,220.000 129.128 C 219.774 128.987,219.667 128.739,219.667 128.361 C 219.667 127.942,219.583 127.780,219.333 127.715 C 219.044 127.639,219.000 127.488,219.000 126.562 C 219.000 125.703,218.935 125.441,218.667 125.211 C 218.422 125.002,218.333 124.720,218.333 124.152 C 218.333 123.631,218.225 123.240,218.000 122.955 C 217.817 122.721,217.667 122.367,217.667 122.166 C 217.667 121.942,217.538 121.769,217.333 121.715 C 217.037 121.638,217.000 121.488,217.000 120.382 C 217.000 119.300,216.958 119.125,216.685 119.053 C 216.427 118.986,216.358 118.776,216.301 117.882 C 216.252 117.110,216.150 116.733,215.949 116.586 C 215.788 116.468,215.667 116.156,215.667 115.858 C 215.667 115.517,215.551 115.264,215.333 115.128 C 215.079 114.969,215.000 114.739,215.000 114.160 C 215.000 113.009,214.974 113.000,211.667 113.000 C 209.607 113.000,208.674 113.060,208.533 113.200 M228.792 113.330 C 228.557 113.515,228.238 113.667,228.083 113.667 C 227.929 113.667,227.763 113.817,227.715 114.000 C 227.660 114.211,227.488 114.333,227.247 114.333 C 226.852 114.333,225.667 115.381,225.667 115.730 C 225.667 115.838,225.517 116.035,225.333 116.167 C 225.150 116.299,225.000 116.524,225.000 116.666 C 225.000 116.809,224.850 117.054,224.667 117.211 C 224.379 117.458,224.333 117.703,224.333 118.998 C 224.333 120.201,224.285 120.500,224.091 120.500 C 223.531 120.500,223.485 126.334,224.042 126.740 C 224.274 126.910,224.333 127.205,224.333 128.195 C 224.333 129.188,224.397 129.506,224.652 129.779 C 224.827 129.968,224.996 130.300,225.027 130.519 C 225.058 130.738,225.177 130.926,225.292 130.938 C 225.406 130.949,225.568 130.968,225.651 130.979 C 225.734 130.991,225.763 131.150,225.715 131.333 C 225.648 131.589,225.710 131.667,225.981 131.667 C 226.188 131.667,226.333 131.773,226.333 131.924 C 226.333 132.239,227.068 133.000,227.372 133.000 C 227.493 133.000,227.721 133.150,227.878 133.333 C 228.035 133.517,228.364 133.667,228.610 133.667 C 228.856 133.667,229.202 133.798,229.379 133.958 C 229.662 134.214,230.081 134.250,232.750 134.250 C 235.419 134.250,235.838 134.214,236.121 133.958 C 236.298 133.798,236.639 133.667,236.879 133.667 C 237.118 133.667,237.412 133.535,237.532 133.374 C 237.652 133.212,237.975 133.005,238.250 132.913 C 238.605 132.795,238.796 132.589,238.909 132.207 C 239.012 131.858,239.175 131.667,239.368 131.667 C 239.574 131.667,239.667 131.540,239.667 131.260 C 239.667 131.036,239.753 130.799,239.859 130.734 C 239.986 130.656,240.010 130.695,239.930 130.849 C 239.863 130.978,239.933 130.933,240.086 130.750 C 240.303 130.488,240.342 130.203,240.269 129.417 C 240.199 128.671,240.220 128.493,240.351 128.718 C 240.671 129.264,241.000 128.737,241.000 127.680 C 241.000 126.326,241.018 126.333,237.826 126.333 C 234.641 126.333,234.611 126.346,234.410 127.750 C 234.268 128.748,234.094 129.000,233.547 129.000 C 233.272 129.000,233.106 129.114,233.046 129.342 C 232.941 129.743,232.250 129.735,232.250 129.333 C 232.250 129.193,232.068 129.059,231.833 129.027 C 231.090 128.927,230.333 127.946,230.333 127.083 C 230.333 126.556,230.235 126.235,230.000 126.000 C 229.625 125.625,229.482 121.467,229.836 121.248 C 229.929 121.191,229.961 121.072,229.907 120.984 C 229.853 120.897,229.908 120.846,230.029 120.871 C 230.193 120.905,230.250 120.654,230.250 119.892 C 230.250 118.984,230.285 118.875,230.559 118.928 C 230.757 118.966,230.899 118.870,230.953 118.660 C 231.008 118.453,231.182 118.333,231.430 118.333 C 231.645 118.333,231.955 118.194,232.119 118.025 C 232.589 117.537,233.124 117.468,233.101 117.897 C 233.087 118.187,233.192 118.259,233.688 118.301 L 234.292 118.351 234.402 119.324 C 234.589 120.970,234.651 121.000,237.861 121.000 C 239.769 121.000,240.661 120.939,240.800 120.800 C 241.148 120.452,241.057 118.390,240.677 118.011 C 240.500 117.833,240.331 117.402,240.302 117.052 C 240.256 116.491,240.204 116.423,239.857 116.472 C 239.602 116.508,239.504 116.462,239.577 116.343 C 239.756 116.053,239.500 115.167,239.237 115.167 C 239.107 115.167,239.000 115.097,239.000 115.012 C 239.000 114.723,238.478 114.333,238.091 114.333 C 237.846 114.333,237.674 114.212,237.618 114.000 C 237.560 113.777,237.391 113.667,237.109 113.667 C 236.876 113.667,236.639 113.590,236.582 113.497 C 236.524 113.404,236.405 113.372,236.318 113.426 C 236.230 113.480,236.179 113.425,236.204 113.304 C 236.292 112.882,229.331 112.906,228.792 113.330 M243.487 113.430 C 243.043 113.902,242.746 117.000,243.145 117.000 C 243.243 117.000,243.283 117.105,243.233 117.233 C 243.184 117.361,243.236 117.523,243.348 117.592 C 243.489 117.679,243.510 117.646,243.418 117.484 C 243.317 117.307,243.333 117.295,243.487 117.437 C 243.599 117.539,243.710 117.764,243.736 117.937 C 243.777 118.223,243.976 118.254,246.057 118.296 L 248.333 118.343 248.333 125.943 C 248.333 135.191,248.005 134.444,252.015 134.307 C 254.573 134.219,254.333 135.083,254.333 125.968 L 254.333 118.333 256.667 118.333 C 259.759 118.333,259.667 118.420,259.667 115.533 C 259.667 114.096,259.601 113.335,259.467 113.200 C 259.317 113.050,257.336 113.000,251.579 113.000 L 243.891 113.000 243.487 113.430 M277.869 113.141 C 277.752 113.216,277.698 113.387,277.750 113.522 C 277.824 113.716,277.723 113.754,277.267 113.700 C 276.817 113.648,276.642 113.710,276.472 113.983 C 276.352 114.176,276.121 114.333,275.960 114.333 C 275.578 114.333,274.333 115.580,274.333 115.963 C 274.333 116.126,274.181 116.389,273.995 116.549 C 273.573 116.911,273.549 121.625,273.971 121.538 C 274.092 121.512,274.147 121.563,274.093 121.651 C 274.039 121.739,274.071 121.857,274.164 121.915 C 274.257 121.973,274.333 122.161,274.333 122.334 C 274.333 122.506,274.470 122.746,274.636 122.866 C 274.802 122.985,274.988 123.215,275.047 123.375 C 275.123 123.577,275.337 123.667,275.745 123.667 C 276.222 123.667,276.333 123.730,276.333 124.000 C 276.333 124.222,276.444 124.333,276.667 124.333 C 276.850 124.333,277.150 124.483,277.333 124.667 C 277.517 124.850,277.800 125.000,277.963 125.000 C 278.126 125.000,278.388 125.150,278.545 125.333 C 278.760 125.584,279.036 125.667,279.665 125.667 C 280.285 125.667,280.500 125.729,280.500 125.909 C 280.500 126.058,280.741 126.195,281.125 126.264 C 281.469 126.325,281.899 126.497,282.080 126.646 C 282.387 126.897,282.395 126.897,282.197 126.640 C 282.050 126.448,282.039 126.329,282.163 126.252 C 282.261 126.192,282.328 126.204,282.311 126.279 C 282.257 126.523,282.530 127.000,282.726 127.003 C 283.006 127.007,283.667 127.754,283.667 128.065 C 283.667 128.410,283.079 129.000,282.734 129.000 C 282.588 129.000,282.430 129.150,282.382 129.333 C 282.325 129.551,282.154 129.667,281.890 129.667 C 281.668 129.667,281.325 129.517,281.128 129.333 C 280.931 129.150,280.611 129.000,280.415 129.000 C 279.929 129.000,279.405 128.348,279.467 127.819 C 279.495 127.579,279.402 127.293,279.258 127.174 C 279.116 127.056,279.000 126.818,279.000 126.646 C 279.000 126.260,273.578 126.155,273.200 126.533 C 272.843 126.890,272.939 129.271,273.320 129.539 C 273.504 129.668,273.664 130.008,273.695 130.340 C 273.731 130.717,273.836 130.917,274.000 130.917 C 274.137 130.917,274.274 131.085,274.303 131.292 C 274.335 131.515,274.473 131.667,274.644 131.667 C 274.824 131.667,274.990 131.868,275.091 132.208 C 275.206 132.600,275.392 132.796,275.762 132.917 C 276.044 133.008,276.406 133.215,276.566 133.375 C 276.730 133.539,277.106 133.667,277.429 133.667 C 277.743 133.667,278.000 133.737,278.000 133.822 C 278.000 134.149,278.691 134.196,279.054 133.894 C 279.253 133.728,279.323 133.699,279.208 133.829 C 278.784 134.312,279.059 134.359,281.983 134.305 C 284.540 134.258,285.012 134.208,285.288 133.958 C 285.465 133.798,285.843 133.667,286.129 133.667 C 286.442 133.667,286.734 133.545,286.866 133.360 C 286.985 133.192,287.282 133.005,287.525 132.945 C 287.783 132.881,288.108 132.594,288.311 132.251 C 288.500 131.930,288.733 131.667,288.828 131.667 C 288.922 131.667,289.000 131.535,289.000 131.373 C 289.000 131.212,289.150 130.987,289.333 130.872 C 289.823 130.566,289.846 125.687,289.360 125.215 C 289.191 125.051,289.006 124.785,288.949 124.625 C 288.891 124.465,288.729 124.333,288.589 124.333 C 288.444 124.333,288.333 124.188,288.333 124.000 C 288.333 123.778,288.222 123.667,288.000 123.667 C 287.812 123.667,287.667 123.556,287.667 123.411 C 287.667 123.271,287.535 123.109,287.375 123.051 C 287.215 122.994,286.949 122.809,286.785 122.640 C 286.621 122.471,286.265 122.333,285.994 122.333 C 285.684 122.333,285.500 122.247,285.500 122.103 C 285.500 121.869,285.016 121.673,284.430 121.669 C 284.254 121.668,283.982 121.551,283.825 121.410 C 283.669 121.268,283.258 121.106,282.911 121.050 C 282.565 120.994,282.143 120.810,281.974 120.641 C 281.778 120.444,281.426 120.333,281.000 120.333 C 280.514 120.333,280.333 120.265,280.333 120.079 C 280.333 119.939,280.155 119.757,279.937 119.675 C 279.226 119.404,279.628 118.428,280.500 118.308 C 280.803 118.266,280.912 118.153,280.899 117.897 C 280.876 117.468,281.411 117.537,281.881 118.025 C 282.045 118.194,282.366 118.333,282.594 118.333 C 282.878 118.333,283.056 118.459,283.161 118.734 C 283.244 118.954,283.392 119.183,283.490 119.244 C 283.587 119.304,283.667 119.575,283.667 119.847 L 283.667 120.341 286.625 120.296 L 289.583 120.250 289.631 118.797 C 289.675 117.487,289.646 117.323,289.340 117.132 C 289.134 117.004,289.000 116.742,289.000 116.469 C 289.000 116.222,288.864 115.921,288.697 115.801 C 288.531 115.681,288.346 115.452,288.286 115.292 C 288.226 115.131,288.071 115.000,287.941 115.000 C 287.812 115.000,287.666 114.850,287.618 114.667 C 287.560 114.442,287.391 114.333,287.100 114.333 C 286.850 114.333,286.582 114.194,286.461 114.000 C 286.347 113.817,286.121 113.667,285.960 113.667 C 285.799 113.667,285.517 113.517,285.333 113.333 C 284.979 112.979,278.392 112.809,277.869 113.141 M294.319 113.214 C 293.678 113.706,293.667 113.892,293.669 123.697 C 293.672 133.466,293.687 133.708,294.272 133.595 C 294.479 133.555,294.611 133.618,294.611 133.758 C 294.611 133.883,294.537 133.940,294.446 133.884 C 294.351 133.825,294.335 133.868,294.408 133.986 C 294.477 134.098,294.639 134.149,294.767 134.100 C 294.895 134.051,295.000 134.083,295.000 134.172 C 295.000 134.417,307.088 134.387,307.549 134.140 C 308.294 133.742,308.333 133.606,308.333 131.462 C 308.333 128.786,308.698 129.000,304.133 129.000 L 300.333 129.000 300.333 127.337 L 300.333 125.674 303.625 125.629 L 306.917 125.583 306.917 123.333 L 306.917 121.083 303.625 121.038 L 300.333 120.993 300.333 119.672 L 300.333 118.351 304.153 118.300 C 306.254 118.273,308.035 118.188,308.111 118.112 C 308.346 117.877,308.389 113.518,308.159 113.241 C 307.888 112.914,294.743 112.888,294.319 113.214 M311.673 113.400 C 311.589 113.621,311.441 113.850,311.344 113.910 C 311.086 114.069,311.127 114.628,311.407 114.785 C 311.565 114.873,311.665 115.264,311.699 115.918 C 311.737 116.672,311.811 116.917,312.000 116.917 C 312.200 116.917,312.267 117.250,312.333 118.583 C 312.394 119.793,312.474 120.239,312.625 120.208 C 312.740 120.185,312.821 120.223,312.807 120.292 C 312.792 120.360,312.827 120.529,312.884 120.667 C 312.942 120.804,313.010 121.217,313.036 121.583 C 313.074 122.119,313.148 122.250,313.411 122.250 C 313.716 122.251,313.735 122.356,313.691 123.834 C 313.649 125.242,313.682 125.457,313.989 125.785 C 314.281 126.097,314.333 126.367,314.333 127.576 C 314.333 128.778,314.385 129.052,314.667 129.333 C 314.889 129.556,315.000 129.889,315.000 130.333 C 315.000 130.778,315.111 131.111,315.333 131.333 C 315.588 131.588,315.667 131.889,315.667 132.605 C 315.667 134.146,316.209 134.406,319.217 134.307 C 321.423 134.235,321.667 134.071,321.667 132.660 C 321.667 131.846,321.716 131.693,322.000 131.618 C 322.265 131.549,322.333 131.391,322.333 130.849 C 322.333 130.379,322.405 130.167,322.564 130.167 C 322.857 130.167,322.995 129.650,322.998 128.542 C 322.999 127.891,323.085 127.581,323.333 127.333 C 323.611 127.056,323.667 126.778,323.667 125.667 L 323.667 124.333 324.000 124.667 C 324.200 124.867,324.333 125.222,324.333 125.556 C 324.333 126.221,324.471 126.398,324.786 126.137 C 324.914 126.031,325.006 126.013,324.990 126.097 C 324.819 126.992,325.036 129.036,325.333 129.333 C 325.593 129.593,325.667 129.889,325.667 130.667 C 325.667 131.217,325.739 131.667,325.828 131.667 C 325.917 131.667,325.949 131.772,325.900 131.900 C 325.851 132.028,325.902 132.190,326.014 132.259 C 326.155 132.346,326.177 132.313,326.085 132.151 C 325.992 131.988,326.006 131.967,326.131 132.083 C 326.230 132.175,326.335 132.550,326.364 132.917 C 326.403 133.413,326.489 133.584,326.702 133.585 C 326.859 133.586,327.084 133.691,327.202 133.818 C 327.379 134.009,327.373 134.028,327.167 133.929 C 327.029 133.863,327.067 133.932,327.250 134.083 C 327.529 134.314,327.926 134.349,329.700 134.304 C 332.105 134.243,332.192 134.201,332.326 133.041 C 332.389 132.489,332.492 132.250,332.667 132.250 C 332.868 132.250,332.926 131.939,332.964 130.643 C 333.007 129.207,333.047 129.027,333.339 128.950 C 333.621 128.877,333.667 128.718,333.667 127.821 C 333.667 127.247,333.716 126.827,333.776 126.887 C 334.112 127.223,334.333 126.546,334.333 125.186 C 334.333 123.927,334.375 123.721,334.667 123.539 C 334.935 123.371,335.000 123.150,335.000 122.409 C 335.000 121.833,335.103 121.331,335.276 121.068 C 335.443 120.812,335.583 120.159,335.631 119.407 C 335.685 118.567,335.778 118.167,335.919 118.167 C 336.216 118.167,336.328 117.608,336.331 116.125 C 336.333 115.089,336.383 114.833,336.583 114.833 C 336.835 114.833,336.896 114.598,336.840 113.833 C 336.785 113.084,336.466 113.000,333.676 113.001 L 331.083 113.002 330.697 113.570 C 330.372 114.047,330.316 114.322,330.347 115.288 C 330.368 115.920,330.300 116.583,330.197 116.761 C 330.094 116.938,330.008 117.005,330.005 116.908 C 330.002 116.812,330.075 116.643,330.166 116.533 C 330.257 116.422,330.209 116.440,330.058 116.572 C 329.848 116.755,329.764 117.218,329.701 118.531 C 329.633 119.958,329.566 120.287,329.310 120.468 C 329.110 120.608,329.000 120.890,329.000 121.259 C 329.000 121.893,328.827 121.986,328.479 121.542 C 328.267 121.272,328.275 121.268,328.583 121.497 C 328.903 121.734,328.906 121.731,328.643 121.414 C 328.469 121.203,328.345 120.667,328.301 119.938 C 328.251 119.112,328.153 118.735,327.949 118.586 C 327.781 118.463,327.666 118.152,327.664 117.815 C 327.661 117.001,327.496 116.500,327.231 116.500 C 327.056 116.500,326.999 116.208,326.997 115.292 C 326.995 113.975,326.864 113.601,326.462 113.756 C 326.318 113.811,326.144 113.764,326.074 113.652 C 325.990 113.516,326.018 113.491,326.157 113.577 C 326.301 113.666,326.347 113.610,326.305 113.395 C 326.250 113.109,326.060 113.083,323.998 113.083 L 321.750 113.083 321.695 113.660 C 321.663 114.002,321.504 114.333,321.305 114.472 C 321.033 114.663,320.981 114.855,321.027 115.506 C 321.071 116.128,321.019 116.346,320.792 116.488 C 320.424 116.717,320.423 116.964,320.787 117.404 C 320.945 117.594,320.968 117.656,320.837 117.542 C 320.434 117.187,320.333 117.304,320.333 118.130 C 320.333 118.720,320.247 119.000,320.000 119.211 C 319.716 119.455,319.667 119.703,319.667 120.896 C 319.667 122.154,319.633 122.303,319.333 122.382 C 319.024 122.462,318.999 122.382,318.980 121.276 C 318.955 119.775,318.818 119.133,318.500 119.028 C 318.280 118.956,318.279 118.984,318.492 119.265 C 318.678 119.510,318.680 119.536,318.502 119.376 C 318.348 119.240,318.285 118.886,318.314 118.331 C 318.371 117.251,318.203 116.500,317.903 116.500 C 317.717 116.500,317.667 116.187,317.667 115.012 C 317.667 112.939,317.764 113.000,314.484 113.000 C 311.830 113.000,311.825 113.001,311.673 113.400 M341.200 113.200 C 341.049 113.351,341.000 115.860,341.000 123.472 L 341.000 133.544 341.364 133.860 C 342.091 134.491,345.975 134.544,346.650 133.933 C 347.073 133.549,347.217 113.617,346.800 113.200 C 346.662 113.062,345.800 113.000,344.000 113.000 C 342.200 113.000,341.338 113.062,341.200 113.200 M352.319 113.214 C 351.678 113.705,351.667 113.892,351.667 123.719 C 351.667 133.355,351.726 134.349,352.247 133.505 C 352.307 133.408,352.430 133.373,352.520 133.429 C 352.624 133.493,352.617 133.610,352.500 133.750 C 352.293 134.000,352.551 134.258,352.833 134.083 C 352.925 134.027,353.000 134.060,353.000 134.157 C 353.000 134.465,357.037 134.387,357.426 134.071 C 357.604 133.927,357.637 133.863,357.500 133.929 C 357.310 134.020,357.295 134.000,357.437 133.846 C 357.539 133.735,357.764 133.623,357.937 133.598 C 358.233 133.554,358.252 133.315,358.295 129.258 C 358.333 125.539,358.371 124.991,358.579 125.163 C 358.777 125.328,358.808 125.303,358.755 125.024 C 358.707 124.777,358.757 124.712,358.942 124.783 C 359.081 124.836,359.130 124.926,359.050 124.982 C 358.971 125.038,358.917 125.177,358.932 125.292 C 358.946 125.406,358.968 125.657,358.979 125.849 C 358.991 126.047,359.145 126.236,359.333 126.285 C 359.550 126.342,359.667 126.512,359.667 126.771 C 359.667 126.990,359.817 127.298,360.000 127.455 C 360.183 127.612,360.333 127.874,360.333 128.037 C 360.333 128.200,360.483 128.483,360.667 128.667 C 360.850 128.850,361.000 129.141,361.000 129.313 C 361.000 129.485,361.127 129.729,361.282 129.855 C 361.525 130.052,361.544 130.049,361.422 129.833 C 361.337 129.684,361.341 129.639,361.432 129.722 C 361.515 129.799,361.593 129.930,361.604 130.014 C 361.616 130.098,361.634 130.239,361.646 130.327 C 361.657 130.415,361.808 130.621,361.981 130.785 C 362.153 130.949,362.347 131.327,362.410 131.625 C 362.475 131.927,362.631 132.167,362.763 132.167 C 362.903 132.167,363.000 132.333,363.000 132.571 C 363.000 132.807,363.251 133.242,363.601 133.613 L 364.201 134.250 366.697 134.250 C 368.980 134.250,369.214 134.222,369.431 133.925 C 369.632 133.650,369.663 132.012,369.626 123.341 L 369.583 113.083 366.855 113.037 C 363.311 112.978,363.667 112.422,363.667 118.022 C 363.667 122.628,363.664 122.668,363.333 122.461 C 363.150 122.347,363.000 122.087,363.000 121.883 C 363.000 121.680,362.859 121.379,362.686 121.215 C 362.513 121.051,362.320 120.673,362.256 120.375 C 362.191 120.073,362.036 119.833,361.903 119.833 C 361.773 119.833,361.667 119.676,361.667 119.484 C 361.667 119.276,361.533 119.100,361.333 119.048 C 361.081 118.982,361.000 118.821,361.000 118.382 C 361.000 117.942,360.919 117.781,360.667 117.715 C 360.431 117.653,360.333 117.488,360.333 117.149 C 360.333 116.850,360.208 116.591,360.000 116.461 C 359.817 116.347,359.667 116.139,359.667 116.000 C 359.667 115.861,359.517 115.653,359.333 115.539 C 359.140 115.418,359.000 115.150,359.000 114.900 C 359.000 114.609,358.892 114.440,358.667 114.382 C 358.455 114.326,358.333 114.154,358.333 113.909 C 358.333 113.090,358.021 113.000,355.196 113.005 C 353.406 113.009,352.500 113.074,352.319 113.214 M379.554 113.319 C 379.366 113.494,379.033 113.663,378.814 113.694 C 378.522 113.735,378.420 113.851,378.431 114.132 C 378.443 114.460,378.382 114.501,378.009 114.419 C 377.596 114.328,376.333 115.178,376.333 115.546 C 376.333 115.612,376.183 115.817,376.000 116.000 C 375.817 116.183,375.667 116.465,375.667 116.627 C 375.667 116.788,375.517 117.013,375.333 117.128 C 375.103 117.272,375.000 117.517,375.000 117.918 C 375.000 118.316,374.923 118.500,374.758 118.500 C 374.193 118.500,374.146 128.330,374.708 128.740 C 374.869 128.858,375.000 129.114,375.000 129.310 C 375.000 129.506,375.150 129.817,375.333 130.000 C 375.517 130.183,375.667 130.459,375.667 130.613 C 375.667 130.926,377.745 133.000,378.059 133.000 C 378.169 133.000,378.388 133.150,378.545 133.333 C 378.702 133.517,379.029 133.667,379.272 133.667 C 379.515 133.667,379.809 133.798,379.926 133.958 C 380.172 134.295,386.333 134.523,386.333 134.196 C 386.333 134.105,386.472 134.068,386.642 134.112 C 386.811 134.156,387.069 134.074,387.213 133.930 C 387.358 133.785,387.740 133.667,388.062 133.667 C 388.445 133.667,388.723 133.559,388.866 133.356 C 388.985 133.185,389.327 132.991,389.625 132.926 C 389.926 132.860,390.167 132.702,390.167 132.570 C 390.167 132.440,390.228 132.333,390.303 132.333 C 390.378 132.333,390.717 132.087,391.056 131.785 L 391.672 131.236 391.628 126.827 L 391.583 122.417 387.022 122.372 C 381.547 122.319,381.829 122.209,381.840 124.401 C 381.848 126.005,382.403 126.955,383.239 126.795 C 383.474 126.750,383.667 126.777,383.667 126.856 C 383.667 126.935,384.117 127.000,384.667 127.000 L 385.667 127.000 385.667 128.000 L 385.667 129.000 385.026 129.000 C 384.597 129.000,384.285 129.110,384.083 129.333 C 383.917 129.517,383.615 129.667,383.410 129.667 C 383.179 129.667,383.006 129.541,382.952 129.333 C 382.885 129.078,382.724 129.000,382.266 129.000 C 381.805 129.000,381.667 128.932,381.667 128.707 C 381.667 128.545,381.517 128.320,381.333 128.205 C 381.109 128.065,381.000 127.817,381.000 127.447 C 381.000 127.145,380.882 126.751,380.738 126.574 C 380.593 126.396,380.522 126.343,380.580 126.456 C 380.646 126.589,380.597 126.629,380.442 126.570 C 380.309 126.519,380.224 126.351,380.254 126.197 C 380.283 126.043,380.314 124.773,380.321 123.375 C 380.331 121.328,380.378 120.833,380.564 120.833 C 380.826 120.833,380.994 120.333,380.998 119.542 C 380.999 119.158,381.078 119.000,381.266 119.000 C 381.412 119.000,381.570 118.850,381.618 118.667 C 381.675 118.450,381.846 118.333,382.104 118.333 C 382.324 118.333,382.632 118.183,382.789 118.000 C 382.946 117.817,383.199 117.667,383.351 117.667 C 383.503 117.667,383.667 117.817,383.715 118.000 C 383.782 118.255,383.942 118.333,384.401 118.333 C 384.966 118.333,385.000 118.364,385.000 118.875 C 385.000 119.204,385.155 119.597,385.395 119.875 L 385.789 120.333 388.394 120.333 L 391.000 120.333 391.000 118.501 C 391.000 116.850,390.967 116.649,390.667 116.461 C 390.483 116.347,390.333 116.118,390.333 115.952 C 390.333 115.613,389.531 114.795,389.324 114.923 C 389.250 114.968,389.135 114.918,389.069 114.810 C 388.987 114.677,389.022 114.660,389.183 114.756 C 389.382 114.876,389.383 114.855,389.188 114.615 C 389.062 114.460,388.827 114.333,388.666 114.333 C 388.504 114.333,388.333 114.183,388.285 114.000 C 388.219 113.747,388.058 113.667,387.618 113.667 C 387.179 113.667,387.018 113.586,386.952 113.333 C 386.820 112.829,380.094 112.816,379.554 113.319 M83.238 113.481 C 83.289 113.562,83.227 113.714,83.101 113.819 C 82.926 113.964,82.851 113.952,82.781 113.771 C 82.638 113.399,83.033 113.149,83.238 113.481 M311.684 113.986 C 311.540 114.077,311.496 114.250,311.569 114.442 C 311.660 114.680,311.641 114.705,311.488 114.553 C 311.252 114.319,311.398 113.832,311.703 113.836 C 311.863 113.838,311.858 113.876,311.684 113.986 M77.624 119.375 C 77.595 120.315,77.570 119.546,77.570 117.667 C 77.570 115.787,77.595 115.019,77.624 115.958 C 77.654 116.898,77.654 118.435,77.624 119.375 M142.333 123.667 C 142.333 129.778,142.276 133.000,142.167 133.000 C 142.058 133.000,142.000 129.778,142.000 123.667 C 142.000 117.556,142.058 114.333,142.167 114.333 C 142.276 114.333,142.333 117.556,142.333 123.667 M128.500 117.909 C 128.500 118.056,128.739 118.196,129.106 118.265 C 129.770 118.390,130.333 118.849,130.333 119.266 C 130.333 119.412,130.483 119.570,130.667 119.618 C 131.121 119.737,131.198 127.667,130.745 127.667 C 130.604 127.667,130.441 127.798,130.382 127.958 C 130.182 128.498,129.587 128.994,129.134 128.997 C 128.877 128.999,128.586 129.142,128.452 129.333 L 128.218 129.667 127.917 129.333 C 127.751 129.150,127.503 129.000,127.366 129.000 C 126.825 129.000,125.667 127.510,125.667 126.814 C 125.667 126.370,125.561 126.073,125.333 125.878 C 125.035 125.623,125.000 125.386,125.000 123.630 C 125.000 121.889,125.038 121.629,125.333 121.333 C 125.568 121.099,125.667 120.778,125.667 120.250 C 125.667 119.837,125.734 119.500,125.817 119.500 C 125.899 119.500,126.122 119.237,126.311 118.917 C 126.551 118.510,126.775 118.333,127.052 118.333 C 127.270 118.333,127.584 118.183,127.750 118.000 C 128.103 117.610,128.500 117.562,128.500 117.909 M191.909 118.758 C 192.455 119.304,192.551 121.000,192.035 121.000 C 191.871 121.000,191.443 121.150,191.083 121.333 C 190.724 121.517,190.108 121.667,189.715 121.667 L 189.000 121.667 189.000 120.000 L 189.000 118.333 190.242 118.333 C 191.351 118.333,191.530 118.379,191.909 118.758 M335.219 120.681 C 335.088 120.812,335.006 120.812,334.926 120.681 C 334.864 120.582,334.898 120.500,335.000 120.500 C 335.102 120.500,335.133 120.406,335.069 120.292 C 334.975 120.125,334.996 120.125,335.176 120.292 C 335.337 120.442,335.349 120.551,335.219 120.681 M98.250 123.651 C 98.250 125.017,98.194 126.100,98.125 126.058 C 97.876 125.903,97.983 121.167,98.236 121.167 C 98.244 121.167,98.250 122.285,98.250 123.651 M152.512 121.546 C 152.492 121.745,152.263 121.707,152.192 121.492 C 152.155 121.382,152.215 121.322,152.325 121.358 C 152.435 121.395,152.519 121.479,152.512 121.546 M53.530 124.667 C 53.605 124.667,53.667 124.892,53.667 125.167 C 53.667 125.639,53.630 125.667,53.000 125.667 L 52.333 125.667 52.333 125.000 C 52.333 124.021,52.823 123.542,53.155 124.196 C 53.286 124.455,53.455 124.667,53.530 124.667 M212.090 124.776 C 212.682 125.003,212.367 125.667,211.667 125.667 L 211.000 125.667 211.000 125.000 C 211.000 124.081,211.519 123.509,211.715 124.211 C 211.788 124.470,211.956 124.724,212.090 124.776 M46.500 125.520 C 46.500 125.611,46.412 125.632,46.305 125.566 C 46.169 125.482,46.147 125.542,46.232 125.764 C 46.325 126.011,46.308 126.038,46.154 125.886 C 45.924 125.658,46.082 125.094,46.332 125.249 C 46.424 125.306,46.500 125.428,46.500 125.520 M77.624 131.375 C 77.595 132.315,77.570 131.546,77.570 129.667 C 77.570 127.787,77.595 127.019,77.624 127.958 C 77.654 128.898,77.654 130.435,77.624 131.375 M279.251 127.335 C 279.375 127.536,279.198 128.167,279.017 128.167 C 278.946 128.167,278.889 128.057,278.889 127.924 C 278.889 127.791,278.951 127.720,279.028 127.767 C 279.104 127.814,279.167 127.774,279.167 127.677 C 279.167 127.579,279.092 127.500,279.000 127.500 C 278.908 127.500,278.833 127.425,278.833 127.333 C 278.833 127.117,279.117 127.118,279.251 127.335 M376.500 131.083 C 376.500 131.221,376.429 131.333,376.343 131.333 C 376.133 131.333,375.982 131.073,376.116 130.940 C 376.303 130.752,376.500 130.826,376.500 131.083 M346.576 133.655 C 346.629 133.740,346.584 133.865,346.477 133.931 C 346.346 134.012,346.327 133.979,346.418 133.831 C 346.517 133.670,346.479 133.639,346.277 133.716 C 346.125 133.775,346.000 133.750,346.000 133.661 C 346.000 133.455,346.450 133.450,346.576 133.655 " stroke="none" fill="#444444" fill-rule="evenodd"></path><path id="path1" d="M29.589 12.158 C 29.535 12.245,29.648 12.401,29.841 12.504 C 30.163 12.676,30.177 12.663,30.007 12.346 C 29.800 11.959,29.731 11.928,29.589 12.158 M259.410 12.178 C 259.349 12.276,259.345 12.401,259.400 12.456 C 259.455 12.511,259.500 12.468,259.500 12.361 C 259.500 12.254,259.579 12.167,259.677 12.167 C 259.774 12.167,259.799 12.253,259.734 12.359 C 259.660 12.479,259.688 12.506,259.810 12.431 C 260.017 12.303,259.916 12.000,259.667 12.000 C 259.586 12.000,259.470 12.080,259.410 12.178 M279.424 12.155 C 279.301 12.355,279.614 12.552,279.836 12.415 C 280.022 12.300,279.900 12.000,279.667 12.000 C 279.586 12.000,279.477 12.070,279.424 12.155 M277.333 14.113 C 276.964 14.504,276.957 14.533,277.272 14.365 C 277.468 14.261,277.671 14.061,277.725 13.921 C 277.856 13.581,277.820 13.598,277.333 14.113 M371.000 34.927 C 371.000 35.069,370.925 35.140,370.833 35.083 C 370.742 35.027,370.667 35.020,370.667 35.068 C 370.667 35.116,370.806 35.229,370.976 35.320 C 371.244 35.464,371.274 35.432,371.206 35.076 C 371.118 34.616,371.000 34.531,371.000 34.927 M198.605 37.631 C 198.453 37.878,199.025 38.044,199.236 37.814 C 199.370 37.669,199.357 37.651,199.190 37.747 C 199.059 37.821,198.909 37.789,198.836 37.670 C 198.755 37.541,198.670 37.526,198.605 37.631 M274.071 54.282 C 274.095 54.448,274.170 54.571,274.238 54.556 C 274.491 54.498,274.501 54.375,274.267 54.181 C 274.072 54.019,274.035 54.038,274.071 54.282 M229.981 61.285 C 229.786 61.796,229.972 62.063,230.544 62.092 C 231.252 62.128,231.685 61.785,231.352 61.452 C 231.181 61.281,230.036 61.141,229.981 61.285 M260.154 70.846 C 259.963 71.037,259.697 71.150,259.562 71.098 C 259.424 71.045,259.361 71.076,259.418 71.169 C 259.589 71.446,259.923 71.354,260.333 70.917 C 260.804 70.416,260.646 70.354,260.154 70.846 M262.792 78.784 C 262.998 78.824,263.167 78.914,263.167 78.984 C 263.167 79.054,263.278 79.111,263.414 79.111 C 263.601 79.111,263.617 79.057,263.477 78.889 C 263.376 78.767,263.095 78.677,262.855 78.689 C 262.462 78.710,262.456 78.720,262.792 78.784 M139.370 88.032 C 139.350 91.212,139.390 93.849,139.458 93.891 C 139.527 93.934,139.564 92.269,139.541 90.193 C 139.460 82.967,139.406 82.286,139.370 88.032 M387.167 100.315 C 387.167 100.428,387.097 100.477,387.012 100.424 C 386.926 100.371,386.809 100.404,386.752 100.497 C 386.694 100.590,386.759 100.667,386.897 100.667 C 387.177 100.667,387.421 100.365,387.267 100.211 C 387.212 100.156,387.167 100.203,387.167 100.315 M82.789 113.433 C 82.571 113.652,82.864 114.015,83.101 113.819 C 83.227 113.714,83.289 113.562,83.238 113.481 C 83.133 113.311,82.933 113.289,82.789 113.433 M311.389 114.095 C 311.334 114.238,311.378 114.444,311.488 114.553 C 311.641 114.705,311.660 114.680,311.569 114.442 C 311.496 114.250,311.540 114.077,311.684 113.986 C 311.858 113.876,311.863 113.838,311.703 113.836 C 311.586 113.834,311.444 113.951,311.389 114.095 M77.570 117.667 C 77.570 119.546,77.595 120.315,77.624 119.375 C 77.654 118.435,77.654 116.898,77.624 115.958 C 77.595 115.019,77.570 115.787,77.570 117.667 M142.000 123.667 C 142.000 129.778,142.058 133.000,142.167 133.000 C 142.276 133.000,142.333 129.778,142.333 123.667 C 142.333 117.556,142.276 114.333,142.167 114.333 C 142.058 114.333,142.000 117.556,142.000 123.667 M335.069 120.292 C 335.133 120.406,335.102 120.500,335.000 120.500 C 334.898 120.500,334.864 120.582,334.926 120.681 C 335.006 120.812,335.088 120.812,335.219 120.681 C 335.349 120.551,335.337 120.442,335.176 120.292 C 334.996 120.125,334.975 120.125,335.069 120.292 M98.111 121.278 C 97.957 121.432,97.970 125.962,98.125 126.058 C 98.194 126.100,98.250 125.017,98.250 123.651 C 98.250 122.285,98.244 121.167,98.236 121.167 C 98.228 121.167,98.172 121.217,98.111 121.278 M152.192 121.492 C 152.228 121.602,152.313 121.686,152.379 121.679 C 152.578 121.659,152.540 121.430,152.325 121.358 C 152.215 121.322,152.155 121.382,152.192 121.492 M46.060 125.417 C 46.003 125.567,46.045 125.778,46.154 125.886 C 46.308 126.038,46.325 126.011,46.232 125.764 C 46.147 125.542,46.169 125.482,46.305 125.566 C 46.412 125.632,46.500 125.611,46.500 125.520 C 46.500 125.218,46.166 125.140,46.060 125.417 M77.570 129.667 C 77.570 131.546,77.595 132.315,77.624 131.375 C 77.654 130.435,77.654 128.898,77.624 127.958 C 77.595 127.019,77.570 127.787,77.570 129.667 M278.833 127.333 C 278.833 127.425,278.908 127.500,279.000 127.500 C 279.092 127.500,279.167 127.579,279.167 127.677 C 279.167 127.774,279.104 127.814,279.028 127.767 C 278.951 127.720,278.889 127.791,278.889 127.924 C 278.889 128.057,278.946 128.167,279.017 128.167 C 279.198 128.167,279.375 127.536,279.251 127.335 C 279.117 127.118,278.833 127.117,278.833 127.333 M44.167 131.088 C 43.970 131.331,43.967 131.367,44.151 131.256 C 44.335 131.145,44.364 131.198,44.286 131.498 C 44.217 131.761,44.239 131.827,44.357 131.710 C 44.451 131.616,44.503 131.367,44.472 131.158 C 44.419 130.793,44.407 130.790,44.167 131.088 M376.116 130.940 C 375.982 131.073,376.133 131.333,376.343 131.333 C 376.429 131.333,376.500 131.221,376.500 131.083 C 376.500 130.826,376.303 130.752,376.116 130.940 M82.940 133.419 C 83.002 133.578,82.954 133.649,82.810 133.613 C 82.685 133.581,82.640 133.586,82.709 133.625 C 82.779 133.664,82.783 133.782,82.719 133.889 C 82.655 133.996,82.730 133.980,82.885 133.855 C 83.190 133.607,83.267 133.167,83.005 133.167 C 82.916 133.167,82.887 133.280,82.940 133.419 M352.269 133.470 C 352.215 133.557,352.276 133.717,352.405 133.824 C 352.590 133.977,352.632 133.965,352.603 133.764 C 352.552 133.420,352.388 133.276,352.269 133.470 M346.000 133.661 C 346.000 133.750,346.125 133.775,346.277 133.716 C 346.479 133.639,346.517 133.670,346.418 133.831 C 346.327 133.979,346.346 134.012,346.477 133.931 C 346.584 133.865,346.629 133.740,346.576 133.655 C 346.450 133.450,346.000 133.455,346.000 133.661 " stroke="none" fill="#484444" fill-rule="evenodd"></path><path id="path2" d="M29.589 12.158 C 29.535 12.245,29.648 12.401,29.841 12.504 C 30.163 12.676,30.177 12.663,30.007 12.346 C 29.800 11.959,29.731 11.928,29.589 12.158 M259.410 12.178 C 259.349 12.276,259.345 12.401,259.400 12.456 C 259.455 12.511,259.500 12.468,259.500 12.361 C 259.500 12.254,259.579 12.167,259.677 12.167 C 259.774 12.167,259.799 12.253,259.734 12.359 C 259.660 12.479,259.688 12.506,259.810 12.431 C 260.017 12.303,259.916 12.000,259.667 12.000 C 259.586 12.000,259.470 12.080,259.410 12.178 M279.424 12.155 C 279.301 12.355,279.614 12.552,279.836 12.415 C 280.022 12.300,279.900 12.000,279.667 12.000 C 279.586 12.000,279.477 12.070,279.424 12.155 M277.333 14.113 C 276.964 14.504,276.957 14.533,277.272 14.365 C 277.468 14.261,277.671 14.061,277.725 13.921 C 277.856 13.581,277.820 13.598,277.333 14.113 M371.000 34.927 C 371.000 35.069,370.925 35.140,370.833 35.083 C 370.742 35.027,370.667 35.020,370.667 35.068 C 370.667 35.116,370.806 35.229,370.976 35.320 C 371.244 35.464,371.274 35.432,371.206 35.076 C 371.118 34.616,371.000 34.531,371.000 34.927 M198.605 37.631 C 198.453 37.878,199.025 38.044,199.236 37.814 C 199.370 37.669,199.357 37.651,199.190 37.747 C 199.059 37.821,198.909 37.789,198.836 37.670 C 198.755 37.541,198.670 37.526,198.605 37.631 M274.071 54.282 C 274.095 54.448,274.170 54.571,274.238 54.556 C 274.491 54.498,274.501 54.375,274.267 54.181 C 274.072 54.019,274.035 54.038,274.071 54.282 M229.981 61.285 C 229.786 61.796,229.972 62.063,230.544 62.092 C 231.252 62.128,231.685 61.785,231.352 61.452 C 231.181 61.281,230.036 61.141,229.981 61.285 M260.154 70.846 C 259.963 71.037,259.697 71.150,259.562 71.098 C 259.424 71.045,259.361 71.076,259.418 71.169 C 259.589 71.446,259.923 71.354,260.333 70.917 C 260.804 70.416,260.646 70.354,260.154 70.846 M262.792 78.784 C 262.998 78.824,263.167 78.914,263.167 78.984 C 263.167 79.054,263.278 79.111,263.414 79.111 C 263.601 79.111,263.617 79.057,263.477 78.889 C 263.376 78.767,263.095 78.677,262.855 78.689 C 262.462 78.710,262.456 78.720,262.792 78.784 M139.370 88.032 C 139.350 91.212,139.390 93.849,139.458 93.891 C 139.527 93.934,139.564 92.269,139.541 90.193 C 139.460 82.967,139.406 82.286,139.370 88.032 M387.167 100.315 C 387.167 100.428,387.097 100.477,387.012 100.424 C 386.926 100.371,386.809 100.404,386.752 100.497 C 386.694 100.590,386.759 100.667,386.897 100.667 C 387.177 100.667,387.421 100.365,387.267 100.211 C 387.212 100.156,387.167 100.203,387.167 100.315 M82.789 113.433 C 82.571 113.652,82.864 114.015,83.101 113.819 C 83.227 113.714,83.289 113.562,83.238 113.481 C 83.133 113.311,82.933 113.289,82.789 113.433 M311.389 114.095 C 311.334 114.238,311.378 114.444,311.488 114.553 C 311.641 114.705,311.660 114.680,311.569 114.442 C 311.496 114.250,311.540 114.077,311.684 113.986 C 311.858 113.876,311.863 113.838,311.703 113.836 C 311.586 113.834,311.444 113.951,311.389 114.095 M77.570 117.667 C 77.570 119.546,77.595 120.315,77.624 119.375 C 77.654 118.435,77.654 116.898,77.624 115.958 C 77.595 115.019,77.570 115.787,77.570 117.667 M142.000 123.667 C 142.000 129.778,142.058 133.000,142.167 133.000 C 142.276 133.000,142.333 129.778,142.333 123.667 C 142.333 117.556,142.276 114.333,142.167 114.333 C 142.058 114.333,142.000 117.556,142.000 123.667 M335.069 120.292 C 335.133 120.406,335.102 120.500,335.000 120.500 C 334.898 120.500,334.864 120.582,334.926 120.681 C 335.006 120.812,335.088 120.812,335.219 120.681 C 335.349 120.551,335.337 120.442,335.176 120.292 C 334.996 120.125,334.975 120.125,335.069 120.292 M98.111 121.278 C 97.957 121.432,97.970 125.962,98.125 126.058 C 98.194 126.100,98.250 125.017,98.250 123.651 C 98.250 122.285,98.244 121.167,98.236 121.167 C 98.228 121.167,98.172 121.217,98.111 121.278 M152.192 121.492 C 152.228 121.602,152.313 121.686,152.379 121.679 C 152.578 121.659,152.540 121.430,152.325 121.358 C 152.215 121.322,152.155 121.382,152.192 121.492 M46.060 125.417 C 46.003 125.567,46.045 125.778,46.154 125.886 C 46.308 126.038,46.325 126.011,46.232 125.764 C 46.147 125.542,46.169 125.482,46.305 125.566 C 46.412 125.632,46.500 125.611,46.500 125.520 C 46.500 125.218,46.166 125.140,46.060 125.417 M77.570 129.667 C 77.570 131.546,77.595 132.315,77.624 131.375 C 77.654 130.435,77.654 128.898,77.624 127.958 C 77.595 127.019,77.570 127.787,77.570 129.667 M278.833 127.333 C 278.833 127.425,278.908 127.500,279.000 127.500 C 279.092 127.500,279.167 127.579,279.167 127.677 C 279.167 127.774,279.104 127.814,279.028 127.767 C 278.951 127.720,278.889 127.791,278.889 127.924 C 278.889 128.057,278.946 128.167,279.017 128.167 C 279.198 128.167,279.375 127.536,279.251 127.335 C 279.117 127.118,278.833 127.117,278.833 127.333 M44.167 131.088 C 43.970 131.331,43.967 131.367,44.151 131.256 C 44.335 131.145,44.364 131.198,44.286 131.498 C 44.217 131.761,44.239 131.827,44.357 131.710 C 44.451 131.616,44.503 131.367,44.472 131.158 C 44.419 130.793,44.407 130.790,44.167 131.088 M376.116 130.940 C 375.982 131.073,376.133 131.333,376.343 131.333 C 376.429 131.333,376.500 131.221,376.500 131.083 C 376.500 130.826,376.303 130.752,376.116 130.940 M82.940 133.419 C 83.002 133.578,82.954 133.649,82.810 133.613 C 82.685 133.581,82.640 133.586,82.709 133.625 C 82.779 133.664,82.783 133.782,82.719 133.889 C 82.655 133.996,82.730 133.980,82.885 133.855 C 83.190 133.607,83.267 133.167,83.005 133.167 C 82.916 133.167,82.887 133.280,82.940 133.419 M352.269 133.470 C 352.215 133.557,352.276 133.717,352.405 133.824 C 352.590 133.977,352.632 133.965,352.603 133.764 C 352.552 133.420,352.388 133.276,352.269 133.470 M346.000 133.661 C 346.000 133.750,346.125 133.775,346.277 133.716 C 346.479 133.639,346.517 133.670,346.418 133.831 C 346.327 133.979,346.346 134.012,346.477 133.931 C 346.584 133.865,346.629 133.740,346.576 133.655 C 346.450 133.450,346.000 133.455,346.000 133.661 " stroke="none" fill="#484444" fill-rule="evenodd"></path><path id="path3" d="M29.589 12.158 C 29.535 12.245,29.648 12.401,29.841 12.504 C 30.163 12.676,30.177 12.663,30.007 12.346 C 29.800 11.959,29.731 11.928,29.589 12.158 M259.410 12.178 C 259.349 12.276,259.345 12.401,259.400 12.456 C 259.455 12.511,259.500 12.468,259.500 12.361 C 259.500 12.254,259.579 12.167,259.677 12.167 C 259.774 12.167,259.799 12.253,259.734 12.359 C 259.660 12.479,259.688 12.506,259.810 12.431 C 260.017 12.303,259.916 12.000,259.667 12.000 C 259.586 12.000,259.470 12.080,259.410 12.178 M279.424 12.155 C 279.301 12.355,279.614 12.552,279.836 12.415 C 280.022 12.300,279.900 12.000,279.667 12.000 C 279.586 12.000,279.477 12.070,279.424 12.155 M277.333 14.113 C 276.964 14.504,276.957 14.533,277.272 14.365 C 277.468 14.261,277.671 14.061,277.725 13.921 C 277.856 13.581,277.820 13.598,277.333 14.113 M371.000 34.927 C 371.000 35.069,370.925 35.140,370.833 35.083 C 370.742 35.027,370.667 35.020,370.667 35.068 C 370.667 35.116,370.806 35.229,370.976 35.320 C 371.244 35.464,371.274 35.432,371.206 35.076 C 371.118 34.616,371.000 34.531,371.000 34.927 M198.605 37.631 C 198.453 37.878,199.025 38.044,199.236 37.814 C 199.370 37.669,199.357 37.651,199.190 37.747 C 199.059 37.821,198.909 37.789,198.836 37.670 C 198.755 37.541,198.670 37.526,198.605 37.631 M274.071 54.282 C 274.095 54.448,274.170 54.571,274.238 54.556 C 274.491 54.498,274.501 54.375,274.267 54.181 C 274.072 54.019,274.035 54.038,274.071 54.282 M229.981 61.285 C 229.786 61.796,229.972 62.063,230.544 62.092 C 231.252 62.128,231.685 61.785,231.352 61.452 C 231.181 61.281,230.036 61.141,229.981 61.285 M260.154 70.846 C 259.963 71.037,259.697 71.150,259.562 71.098 C 259.424 71.045,259.361 71.076,259.418 71.169 C 259.589 71.446,259.923 71.354,260.333 70.917 C 260.804 70.416,260.646 70.354,260.154 70.846 M262.792 78.784 C 262.998 78.824,263.167 78.914,263.167 78.984 C 263.167 79.054,263.278 79.111,263.414 79.111 C 263.601 79.111,263.617 79.057,263.477 78.889 C 263.376 78.767,263.095 78.677,262.855 78.689 C 262.462 78.710,262.456 78.720,262.792 78.784 M139.370 88.032 C 139.350 91.212,139.390 93.849,139.458 93.891 C 139.527 93.934,139.564 92.269,139.541 90.193 C 139.460 82.967,139.406 82.286,139.370 88.032 M387.167 100.315 C 387.167 100.428,387.097 100.477,387.012 100.424 C 386.926 100.371,386.809 100.404,386.752 100.497 C 386.694 100.590,386.759 100.667,386.897 100.667 C 387.177 100.667,387.421 100.365,387.267 100.211 C 387.212 100.156,387.167 100.203,387.167 100.315 M82.789 113.433 C 82.571 113.652,82.864 114.015,83.101 113.819 C 83.227 113.714,83.289 113.562,83.238 113.481 C 83.133 113.311,82.933 113.289,82.789 113.433 M311.389 114.095 C 311.334 114.238,311.378 114.444,311.488 114.553 C 311.641 114.705,311.660 114.680,311.569 114.442 C 311.496 114.250,311.540 114.077,311.684 113.986 C 311.858 113.876,311.863 113.838,311.703 113.836 C 311.586 113.834,311.444 113.951,311.389 114.095 M77.570 117.667 C 77.570 119.546,77.595 120.315,77.624 119.375 C 77.654 118.435,77.654 116.898,77.624 115.958 C 77.595 115.019,77.570 115.787,77.570 117.667 M142.000 123.667 C 142.000 129.778,142.058 133.000,142.167 133.000 C 142.276 133.000,142.333 129.778,142.333 123.667 C 142.333 117.556,142.276 114.333,142.167 114.333 C 142.058 114.333,142.000 117.556,142.000 123.667 M335.069 120.292 C 335.133 120.406,335.102 120.500,335.000 120.500 C 334.898 120.500,334.864 120.582,334.926 120.681 C 335.006 120.812,335.088 120.812,335.219 120.681 C 335.349 120.551,335.337 120.442,335.176 120.292 C 334.996 120.125,334.975 120.125,335.069 120.292 M98.111 121.278 C 97.957 121.432,97.970 125.962,98.125 126.058 C 98.194 126.100,98.250 125.017,98.250 123.651 C 98.250 122.285,98.244 121.167,98.236 121.167 C 98.228 121.167,98.172 121.217,98.111 121.278 M152.192 121.492 C 152.228 121.602,152.313 121.686,152.379 121.679 C 152.578 121.659,152.540 121.430,152.325 121.358 C 152.215 121.322,152.155 121.382,152.192 121.492 M46.060 125.417 C 46.003 125.567,46.045 125.778,46.154 125.886 C 46.308 126.038,46.325 126.011,46.232 125.764 C 46.147 125.542,46.169 125.482,46.305 125.566 C 46.412 125.632,46.500 125.611,46.500 125.520 C 46.500 125.218,46.166 125.140,46.060 125.417 M77.570 129.667 C 77.570 131.546,77.595 132.315,77.624 131.375 C 77.654 130.435,77.654 128.898,77.624 127.958 C 77.595 127.019,77.570 127.787,77.570 129.667 M278.833 127.333 C 278.833 127.425,278.908 127.500,279.000 127.500 C 279.092 127.500,279.167 127.579,279.167 127.677 C 279.167 127.774,279.104 127.814,279.028 127.767 C 278.951 127.720,278.889 127.791,278.889 127.924 C 278.889 128.057,278.946 128.167,279.017 128.167 C 279.198 128.167,279.375 127.536,279.251 127.335 C 279.117 127.118,278.833 127.117,278.833 127.333 M44.167 131.088 C 43.970 131.331,43.967 131.367,44.151 131.256 C 44.335 131.145,44.364 131.198,44.286 131.498 C 44.217 131.761,44.239 131.827,44.357 131.710 C 44.451 131.616,44.503 131.367,44.472 131.158 C 44.419 130.793,44.407 130.790,44.167 131.088 M376.116 130.940 C 375.982 131.073,376.133 131.333,376.343 131.333 C 376.429 131.333,376.500 131.221,376.500 131.083 C 376.500 130.826,376.303 130.752,376.116 130.940 M82.940 133.419 C 83.002 133.578,82.954 133.649,82.810 133.613 C 82.685 133.581,82.640 133.586,82.709 133.625 C 82.779 133.664,82.783 133.782,82.719 133.889 C 82.655 133.996,82.730 133.980,82.885 133.855 C 83.190 133.607,83.267 133.167,83.005 133.167 C 82.916 133.167,82.887 133.280,82.940 133.419 M352.269 133.470 C 352.215 133.557,352.276 133.717,352.405 133.824 C 352.590 133.977,352.632 133.965,352.603 133.764 C 352.552 133.420,352.388 133.276,352.269 133.470 M346.000 133.661 C 346.000 133.750,346.125 133.775,346.277 133.716 C 346.479 133.639,346.517 133.670,346.418 133.831 C 346.327 133.979,346.346 134.012,346.477 133.931 C 346.584 133.865,346.629 133.740,346.576 133.655 C 346.450 133.450,346.000 133.455,346.000 133.661 " stroke="none" fill="#484444" fill-rule="evenodd"></path><path id="path4" d="M29.589 12.158 C 29.535 12.245,29.648 12.401,29.841 12.504 C 30.163 12.676,30.177 12.663,30.007 12.346 C 29.800 11.959,29.731 11.928,29.589 12.158 M259.410 12.178 C 259.349 12.276,259.345 12.401,259.400 12.456 C 259.455 12.511,259.500 12.468,259.500 12.361 C 259.500 12.254,259.579 12.167,259.677 12.167 C 259.774 12.167,259.799 12.253,259.734 12.359 C 259.660 12.479,259.688 12.506,259.810 12.431 C 260.017 12.303,259.916 12.000,259.667 12.000 C 259.586 12.000,259.470 12.080,259.410 12.178 M279.424 12.155 C 279.301 12.355,279.614 12.552,279.836 12.415 C 280.022 12.300,279.900 12.000,279.667 12.000 C 279.586 12.000,279.477 12.070,279.424 12.155 M277.333 14.113 C 276.964 14.504,276.957 14.533,277.272 14.365 C 277.468 14.261,277.671 14.061,277.725 13.921 C 277.856 13.581,277.820 13.598,277.333 14.113 M371.000 34.927 C 371.000 35.069,370.925 35.140,370.833 35.083 C 370.742 35.027,370.667 35.020,370.667 35.068 C 370.667 35.116,370.806 35.229,370.976 35.320 C 371.244 35.464,371.274 35.432,371.206 35.076 C 371.118 34.616,371.000 34.531,371.000 34.927 M198.605 37.631 C 198.453 37.878,199.025 38.044,199.236 37.814 C 199.370 37.669,199.357 37.651,199.190 37.747 C 199.059 37.821,198.909 37.789,198.836 37.670 C 198.755 37.541,198.670 37.526,198.605 37.631 M274.071 54.282 C 274.095 54.448,274.170 54.571,274.238 54.556 C 274.491 54.498,274.501 54.375,274.267 54.181 C 274.072 54.019,274.035 54.038,274.071 54.282 M229.981 61.285 C 229.786 61.796,229.972 62.063,230.544 62.092 C 231.252 62.128,231.685 61.785,231.352 61.452 C 231.181 61.281,230.036 61.141,229.981 61.285 M260.154 70.846 C 259.963 71.037,259.697 71.150,259.562 71.098 C 259.424 71.045,259.361 71.076,259.418 71.169 C 259.589 71.446,259.923 71.354,260.333 70.917 C 260.804 70.416,260.646 70.354,260.154 70.846 M262.792 78.784 C 262.998 78.824,263.167 78.914,263.167 78.984 C 263.167 79.054,263.278 79.111,263.414 79.111 C 263.601 79.111,263.617 79.057,263.477 78.889 C 263.376 78.767,263.095 78.677,262.855 78.689 C 262.462 78.710,262.456 78.720,262.792 78.784 M139.370 88.032 C 139.350 91.212,139.390 93.849,139.458 93.891 C 139.527 93.934,139.564 92.269,139.541 90.193 C 139.460 82.967,139.406 82.286,139.370 88.032 M387.167 100.315 C 387.167 100.428,387.097 100.477,387.012 100.424 C 386.926 100.371,386.809 100.404,386.752 100.497 C 386.694 100.590,386.759 100.667,386.897 100.667 C 387.177 100.667,387.421 100.365,387.267 100.211 C 387.212 100.156,387.167 100.203,387.167 100.315 M82.789 113.433 C 82.571 113.652,82.864 114.015,83.101 113.819 C 83.227 113.714,83.289 113.562,83.238 113.481 C 83.133 113.311,82.933 113.289,82.789 113.433 M311.389 114.095 C 311.334 114.238,311.378 114.444,311.488 114.553 C 311.641 114.705,311.660 114.680,311.569 114.442 C 311.496 114.250,311.540 114.077,311.684 113.986 C 311.858 113.876,311.863 113.838,311.703 113.836 C 311.586 113.834,311.444 113.951,311.389 114.095 M77.570 117.667 C 77.570 119.546,77.595 120.315,77.624 119.375 C 77.654 118.435,77.654 116.898,77.624 115.958 C 77.595 115.019,77.570 115.787,77.570 117.667 M142.000 123.667 C 142.000 129.778,142.058 133.000,142.167 133.000 C 142.276 133.000,142.333 129.778,142.333 123.667 C 142.333 117.556,142.276 114.333,142.167 114.333 C 142.058 114.333,142.000 117.556,142.000 123.667 M335.069 120.292 C 335.133 120.406,335.102 120.500,335.000 120.500 C 334.898 120.500,334.864 120.582,334.926 120.681 C 335.006 120.812,335.088 120.812,335.219 120.681 C 335.349 120.551,335.337 120.442,335.176 120.292 C 334.996 120.125,334.975 120.125,335.069 120.292 M98.111 121.278 C 97.957 121.432,97.970 125.962,98.125 126.058 C 98.194 126.100,98.250 125.017,98.250 123.651 C 98.250 122.285,98.244 121.167,98.236 121.167 C 98.228 121.167,98.172 121.217,98.111 121.278 M152.192 121.492 C 152.228 121.602,152.313 121.686,152.379 121.679 C 152.578 121.659,152.540 121.430,152.325 121.358 C 152.215 121.322,152.155 121.382,152.192 121.492 M46.060 125.417 C 46.003 125.567,46.045 125.778,46.154 125.886 C 46.308 126.038,46.325 126.011,46.232 125.764 C 46.147 125.542,46.169 125.482,46.305 125.566 C 46.412 125.632,46.500 125.611,46.500 125.520 C 46.500 125.218,46.166 125.140,46.060 125.417 M77.570 129.667 C 77.570 131.546,77.595 132.315,77.624 131.375 C 77.654 130.435,77.654 128.898,77.624 127.958 C 77.595 127.019,77.570 127.787,77.570 129.667 M278.833 127.333 C 278.833 127.425,278.908 127.500,279.000 127.500 C 279.092 127.500,279.167 127.579,279.167 127.677 C 279.167 127.774,279.104 127.814,279.028 127.767 C 278.951 127.720,278.889 127.791,278.889 127.924 C 278.889 128.057,278.946 128.167,279.017 128.167 C 279.198 128.167,279.375 127.536,279.251 127.335 C 279.117 127.118,278.833 127.117,278.833 127.333 M44.167 131.088 C 43.970 131.331,43.967 131.367,44.151 131.256 C 44.335 131.145,44.364 131.198,44.286 131.498 C 44.217 131.761,44.239 131.827,44.357 131.710 C 44.451 131.616,44.503 131.367,44.472 131.158 C 44.419 130.793,44.407 130.790,44.167 131.088 M376.116 130.940 C 375.982 131.073,376.133 131.333,376.343 131.333 C 376.429 131.333,376.500 131.221,376.500 131.083 C 376.500 130.826,376.303 130.752,376.116 130.940 M82.940 133.419 C 83.002 133.578,82.954 133.649,82.810 133.613 C 82.685 133.581,82.640 133.586,82.709 133.625 C 82.779 133.664,82.783 133.782,82.719 133.889 C 82.655 133.996,82.730 133.980,82.885 133.855 C 83.190 133.607,83.267 133.167,83.005 133.167 C 82.916 133.167,82.887 133.280,82.940 133.419 M352.269 133.470 C 352.215 133.557,352.276 133.717,352.405 133.824 C 352.590 133.977,352.632 133.965,352.603 133.764 C 352.552 133.420,352.388 133.276,352.269 133.470 M346.000 133.661 C 346.000 133.750,346.125 133.775,346.277 133.716 C 346.479 133.639,346.517 133.670,346.418 133.831 C 346.327 133.979,346.346 134.012,346.477 133.931 C 346.584 133.865,346.629 133.740,346.576 133.655 C 346.450 133.450,346.000 133.455,346.000 133.661 " stroke="none" fill="#484444" fill-rule="evenodd"></path></g></svg>